<svg width="45" height="45" xmlns="http://www.w3.org/2000/svg"><defs><linearGradient x1="81.763%" y1="20.685%" x2="6.891%" y2="107.561%" id="a"><stop stop-color="#907CFF" offset="0%"/><stop stop-color="#6EBCFF" offset="100%"/></linearGradient></defs><g fill-rule="nonzero" fill="none"><circle fill="url(#a)" cx="22.5" cy="22.5" r="22.5"/><path d="M19.897 27.225a5.972 5.972 0 015.66-2.488 5.958 5.958 0 014.982 4.33c.049.177.075.36.076.544 0 .976-.585 1.853-1.486 2.229a2.18 2.18 0 01-.836.16h-.197a2.157 2.157 0 01-.831-.159 2.419 2.419 0 01-1.417-1.635l-.016-.064-.019-.064a4.465 4.465 0 00-2.332-2.714 4.494 4.494 0 00-3.584-.139zm3.16-6.475c4.953 0 9.354 3.135 10.943 7.793a9.652 9.652 0 00-9.154-5.077c-3.792.248-7.084 2.686-8.405 6.226a2.252 2.252 0 01-2.683 1.692 2.236 2.236 0 01-1.54-3.145c1.68-4.503 6.005-7.491 10.84-7.489zm-2.413-6.4c2.379-1.758 5.152 3.595 6.023 5.458A11.91 11.91 0 0014.257 23c1.604-3.018 3.971-6.866 6.387-8.65z" fill="#FFF"/></g></svg>