<?xml version="1.0" encoding="UTF-8"?>
<svg width="74px" height="69px" viewBox="0 0 74 69" version="1.1" xmlns="http://www.w3.org/2000/svg" xmlns:xlink="http://www.w3.org/1999/xlink">
    <!-- Generator: Sketch 53 (72520) - https://sketchapp.com -->
    <title>Combined Shape</title>
    <desc>Created with Sketch.</desc>
    <defs>
        <linearGradient x1="50%" y1="23.9099221%" x2="66.8192364%" y2="83.1961591%" id="linearGradient-1">
            <stop stop-color="#1CDDFF" offset="0%"></stop>
            <stop stop-color="#00CBF8" offset="100%"></stop>
        </linearGradient>
        <path d="M91,48 L108.142857,48 L108.142857,62.6666667 L91,62.6666667 L91,48 Z M102.292004,59.5164319 L102.292004,56.4178404 L96.850436,56.4178404 L96.850436,59.5164319 L102.292004,59.5164319 Z M102.292004,54.2488263 L102.292004,51.1502347 L96.850436,51.1502347 L96.850436,54.2488263 L102.292004,54.2488263 Z M111.571429,48 L125.285714,48 L125.285714,62.6666667 L111.571429,62.6666667 L111.571429,48 Z M121.104725,59.5164319 L121.104725,56.4178404 L115.752008,56.4178404 L115.752008,59.5164319 L121.104725,59.5164319 Z M121.104725,54.2488263 L121.104725,51.1502347 L115.752008,51.1502347 L115.752008,54.2488263 L121.104725,54.2488263 Z M127.857143,48 L145,48 L145,62.6666667 L127.857143,62.6666667 L127.857143,48 Z M139.149564,59.5164319 L139.149564,56.4178404 L133.707996,56.4178404 L133.707996,59.5164319 L139.149564,59.5164319 Z M139.149564,54.2488263 L139.149564,51.1502347 L133.707996,51.1502347 L133.707996,54.2488263 L139.149564,54.2488263 Z M91,66.1176471 L145,66.1176471 L145,92 L91,92 L91,66.1176471 Z M125.290527,83.7354717 L135.936279,72.758581 L133.699188,70.4514798 L125.290527,79.1216943 L119.489746,73.1404783 L111.245468,81.6407718 L107.457245,77.7351396 L100.063309,85.3590661 L102.300812,87.6661673 L107.457657,82.3489171 L111.24588,86.254974 L119.489746,77.7542557 L125.290527,83.7354717 Z" id="path-2"></path>
        <filter x="-41.7%" y="-28.4%" width="183.3%" height="213.6%" filterUnits="objectBoundingBox" id="filter-3">
            <feOffset dx="0" dy="15" in="SourceAlpha" result="shadowOffsetOuter1"></feOffset>
            <feGaussianBlur stdDeviation="5" in="shadowOffsetOuter1" result="shadowBlurOuter1"></feGaussianBlur>
            <feColorMatrix values="0 0 0 0 0.00392156863   0 0 0 0 0.8   0 0 0 0 0.97254902  0 0 0 0.17 0" type="matrix" in="shadowBlurOuter1"></feColorMatrix>
        </filter>
    </defs>
    <g id="Page-1" stroke="none" stroke-width="1" fill="none" fill-rule="evenodd">
        <g id="Hover" transform="translate(-81.000000, -48.000000)" fill-rule="nonzero">
            <g id="Combined-Shape">
                <use fill="black" fill-opacity="1" filter="url(#filter-3)" xlink:href="#path-2"></use>
                <use fill="url(#linearGradient-1)" xlink:href="#path-2"></use>
            </g>
        </g>
    </g>
</svg>