<svg xmlns="http://www.w3.org/2000/svg" xmlns:xlink="http://www.w3.org/1999/xlink" width="714" height="564"><style><![CDATA[.B{fill:#fff}.C{mask:url(#Ax)}.D{fill:#000}.E{mask:url(#Au)}.F{mask:url(#Av)}.G{fill-rule:nonzero}.H{opacity:.75}.I{fill:url(#T)}.J{stroke:#fff}.K{fill:#f2d7bc}.L{fill:url(#Q)}.M{fill:#edd7d7}.N{fill:#e9e9e9}.O{fill:#fbcec1}.P{stroke-linejoin:bevel}.Q{fill:#eac0a7}.R{mask:url(#Ay)}]]></style><defs><linearGradient x1="50%" y1="-11.3606653%" x2="50%" y2="100%" id="A"><stop stop-color="#fff" offset="0%"/><stop stop-color="#fff7f5" offset="100%"/></linearGradient><rect id="B" width="473" height="564" rx="10"/><linearGradient x1="27.4453864%" y1="11.979081%" x2="43.073839%" y2="79.9401447%" id="C"><stop stop-color="#fb8240" offset="0%"/><stop stop-color="#fff" stop-opacity="0" offset="100%"/></linearGradient><linearGradient x1="27.5290229%" y1="11.979081%" x2="43.0995224%" y2="79.9401447%" id="D"><stop stop-color="#fb8240" offset="0%"/><stop stop-color="#fff" stop-opacity="0" offset="100%"/></linearGradient><linearGradient x1="47.3113567%" y1="23.671875%" x2="47.3113567%" y2="100%" id="E"><stop stop-color="#7ed500" offset="0%"/><stop stop-color="#00bf8d" offset="100%"/></linearGradient><linearGradient x1="50%" y1="0%" x2="50%" y2="100%" id="F"><stop stop-color="#ffba67" offset="0%"/><stop stop-color="#ff635e" offset="100%"/></linearGradient><path d="M406.64 369.352l-1.69 2.634.782 22.014h-59.726s-.946-6.593 24.403-3.39c0 0-5.675-1.507-18.54-11.868 0 0-7.755-8.477 22.51.942-3.783-3.39-27.05-26.184 14.566-3.014-.982-1.365-2.473-2.717-3.122-4.28-1.726-4.162-.29-8.796 4.228-10.27 1.03-.336 2.117-.453 3.2-.487 4.234-.133 8.47 2.155 11.244 5.27.44.495 1.354 1.454 2.144 2.45 9.146-13.338 11.17-.753 11.17-.753 21.562-13.17 15.245-1.34 15.245-1.34 41.61-23.143 18.347-.376 14.564 3 30.262-9.408 13.505 8.5 13.505 8.5-12.862 10.35-19.837 7.61-17.162 10.39 24.403-7.182 23.025 4.852 23.025 4.852H407.27z" id="G"/><linearGradient x1="17.9858503%" y1="15.4457895%" x2="73.9164803%" y2="85.9859252%" id="H"><stop stop-color="#fcdbde" offset="0%"/><stop stop-color="#ea66bf" offset="100%"/></linearGradient><linearGradient x1="16.7601116%" y1="15.1031351%" x2="73.9005598%" y2="82.3794205%" id="I"><stop stop-color="#9bdaef" offset="0%"/><stop stop-color="#93a8ff" offset="100%"/></linearGradient><linearGradient x1="17.9858503%" y1="15.4457895%" x2="74.7425281%" y2="86.419822%" id="J"><stop stop-color="#f5dbfc" offset="0%"/><stop stop-color="#8c5bf9" offset="100%"/></linearGradient><path d="M222.81 122H407.19c3.762 0 6.81 3.05 6.81 6.81V389.19c0 3.762-3.05 6.81-6.81 6.81H222.81c-3.762 0-6.81-3.05-6.81-6.81V128.81c0-3.762 3.05-6.81 6.81-6.81z" id="K"/><filter x="-7.3%" y="-4.6%" width="114.6%" height="110.6%" id="L"><feOffset dy="2" in="SourceAlpha"/><feGaussianBlur stdDeviation="4.5"/><feColorMatrix values="0 0 0 0 0 0 0 0 0 0 0 0 0 0 0 0 0 0 0.07 0"/></filter><linearGradient x1="105.170322%" y1="68.6333829%" x2="0%" y2="31.3666171%" id="M"><stop stop-color="#f2709c" offset="0%"/><stop stop-color="#ff9472" offset="100%"/></linearGradient><linearGradient x1="14.5524094%" y1="49.7330129%" x2="82.7722259%" y2="50.2665553%" id="N"><stop stop-color="#f9769d" stop-opacity=".123" offset="0%"/><stop stop-color="#bb6df7" offset="100%"/></linearGradient><linearGradient x1="82.7722259%" y1="50.586921%" x2="18.1110361%" y2="49.4734103%" id="O"><stop stop-color="#d63ef2" offset="0%"/><stop stop-color="#d11cf8" stop-opacity="0" offset="100%"/></linearGradient><linearGradient x1="14.5524094%" y1="43.0253737%" x2="82.7722259%" y2="56.9633471%" id="P"><stop stop-color="#f9769d" offset="0%"/><stop stop-color="#bb6df7" offset="100%"/></linearGradient><linearGradient x1="86.900296%" y1="47.7878273%" x2="0%" y2="52.2121727%" id="Q"><stop stop-color="#fad961" offset="0%"/><stop stop-color="#f76b1c" offset="100%"/></linearGradient><linearGradient x1="86.900296%" y1="47.7879046%" x2="0%" y2="52.2120954%" id="R"><stop stop-color="#fad961" offset="0%"/><stop stop-color="#f76b1c" offset="100%"/></linearGradient><path id="S" d="M0 .105h39.243V8.36H0z"/><linearGradient x1="86.900296%" y1="47.7874594%" x2="0%" y2="52.2125406%" id="T"><stop stop-color="#fad961" offset="0%"/><stop stop-color="#f76b1c" offset="100%"/></linearGradient><linearGradient x1="50%" y1="36.9304501%" x2="9.20374135%" y2="103.369042%" id="U"><stop stop-color="#fad961" offset="0%"/><stop stop-color="#f76b1c" offset="100%"/></linearGradient><path id="V" d="M.193.067h39.243v8.255H.193z"/><path id="W" d="M.146.53h14.97V7.12H.146z"/><linearGradient x1="50%" y1="-60.7093866%" x2="50%" y2="100%" id="X"><stop stop-color="#6cb7cb" offset="0%"/><stop stop-color="#3a809b" offset="100%"/></linearGradient><path id="Y" d="M.63.53H18.88V7.12H.63z"/><linearGradient x1="50%" y1="0%" x2="50%" y2="100%" id="Z"><stop stop-color="#ffd8ba" offset="0%"/><stop stop-color="#ffaf84" offset="100%"/></linearGradient><linearGradient x1="32.6447033%" y1="80.0190231%" x2="56.6895933%" y2="40.4775184%" id="a"><stop stop-color="#ffb199" offset="0%"/><stop stop-color="#ff0844" offset="100%"/></linearGradient><linearGradient x1="50%" y1="0%" x2="50%" y2="100%" id="b"><stop stop-color="#8487a1" offset="0%"/><stop stop-color="#4d4f68" offset="100%"/></linearGradient><linearGradient x1="64.7175261%" y1="107.681279%" x2="44.9202252%" y2="5.55111512e-15%" id="c"><stop stop-color="#ffb199" offset="0%"/><stop stop-color="#ff0844" offset="100%"/></linearGradient><linearGradient x1="78.7038232%" y1="-38.5945761%" x2="50%" y2="89.4177865%" id="d"><stop stop-color="#ff6fd8" offset="0%"/><stop stop-color="#3813c2" offset="100%"/></linearGradient><linearGradient x1="116.584839%" y1="32.8999471%" x2="8.90355949%" y2="72.9802478%" id="e"><stop stop-color="#ffb199" offset="0%"/><stop stop-color="#ff0844" offset="100%"/></linearGradient><path id="f" d="M.048.288H22.47v8.954H.048z"/><rect id="g" x="254" y="273" width="36" height="37" rx="3.406"/><filter x="-31.9%" y="-25.7%" width="163.9%" height="162.2%" id="h"><feOffset dy="2" in="SourceAlpha"/><feGaussianBlur stdDeviation="3.5"/><feColorMatrix values="0 0 0 0 0 0 0 0 0 0 0 0 0 0 0 0 0 0 0.03 0"/></filter><rect id="i" x="175" y="206" width="63" height="63" rx="3.406"/><filter x="-125.4%" y="-92.1%" width="373.0%" height="373.0%" id="j"><feOffset dx="7" dy="28" in="SourceAlpha"/><feGaussianBlur stdDeviation="24"/><feColorMatrix values="0 0 0 0 0 0 0 0 0 0 0 0 0 0 0 0 0 0 0.228175951 0"/></filter><rect id="k" x="298" y="227" width="36" height="37" rx="3.406"/><rect id="l" x="298" y="273" width="36" height="37" rx="3.406"/><rect id="m" x="342" y="227" width="36" height="37" rx="3.406"/><rect id="n" x="342" y="273" width="36" height="37" rx="3.406"/><linearGradient x1="14.5524094%" y1="38.2951649%" x2="85.7013081%" y2="66.5748393%" id="o"><stop stop-color="#f9769d" offset="0%"/><stop stop-color="#bb6df7" offset="100%"/></linearGradient><linearGradient x1="-63.3359002%" y1="100%" x2="81.5127568%" y2="57.1792923%" id="p"><stop stop-color="#fff" stop-opacity="0" offset="0%"/><stop stop-color="#fdcaba" offset="100%"/></linearGradient><linearGradient x1="50%" y1="0%" x2="50%" y2="100%" id="q"><stop stop-color="#fae000" offset="0%"/><stop stop-color="#f2557a" offset="100%"/></linearGradient><circle id="r" cx="533" cy="210" r="21"/><filter x="-79.8%" y="-67.9%" width="264.3%" height="264.3%" id="s"><feOffset dx="1" dy="6" in="SourceAlpha"/><feGaussianBlur stdDeviation="10.5"/><feColorMatrix values="0 0 0 0 0 0 0 0 0 0 0 0 0 0 0 0 0 0 0.06 0"/></filter><linearGradient x1="50%" y1="0%" x2="50%" y2="100%" id="t"><stop stop-color="#91d1e8" offset="0%"/><stop stop-color="#49cdff" offset="100%"/></linearGradient><linearGradient x1="81.8301441%" y1="7.9083484%" x2="9.8898602%" y2="131.231438%" id="u"><stop stop-color="#f36f39" offset="0%"/><stop stop-color="#23b2d1" offset="100%"/></linearGradient><linearGradient x1="100%" y1="15.6453443%" x2="-13.0065319%" y2="116.300038%" id="v"><stop stop-color="#28cc70" offset="0%"/><stop stop-color="#23b2d1" offset="100%"/></linearGradient><linearGradient x1="50%" y1="0%" x2="50%" y2="100%" id="w"><stop stop-color="#f78192" offset="0%"/><stop stop-color="#e14455" offset="100%"/></linearGradient><path d="M1.92 37.078c10.34-15.37 12.62-1.15 12.62-1.15 23.952-14.678 6.933 9.017 6.933 9.017 46.223-25.792 20.38-.42 16.178 3.355 33.616-10.485 25.003-1.05 25.003-1.05-14.287 11.533-20.6 13.2-20.6 13.2 28.154-3.564 27.103 3.774 27.103 3.774h-66.5c-.33-.6.868-24.233.868-24.233 0-.725-.747-1.85-1.614-2.925-.534.794-1.1 1.667-1.668 2.625l.868 24.534z" id="x"/><linearGradient x1="34.1672228%" y1="86.1729124%" x2="60.3654934%" y2="1.04729212%" id="y"><stop stop-color="#f2683e" offset="0%"/><stop stop-color="#f8981c" offset="100%"/></linearGradient><linearGradient x1="50%" y1="78.6632153%" x2="50%" y2="15.1954876%" id="z"><stop stop-color="#f2683e" offset="0%"/><stop stop-color="#f8981c" offset="100%"/></linearGradient><linearGradient x1="50%" y1="0%" x2="50%" y2="100%" id="AA"><stop stop-color="#f99973" offset="0%"/><stop stop-color="#f0603f" offset="100%"/></linearGradient><path id="AB" d="M.082.25H13.51v8.33H.082z"/><path id="AC" d="M0 .428h51.047v14.3H0z"/><linearGradient x1="50%" y1="-12.9623483%" x2="50%" y2="100%" id="AD"><stop stop-color="#d7cbff" offset="0%"/><stop stop-color="#5f58ff" offset="100%"/></linearGradient><linearGradient x1="24.0076599%" y1="-12.6813321%" x2="60.7563316%" y2="91.2780965%" id="AE"><stop stop-color="#d17aff" offset="0%"/><stop stop-color="#816dff" offset="100%"/></linearGradient><linearGradient x1="12.3008417%" y1="42.8514194%" x2="104.491937%" y2="71.032184%" id="AF"><stop stop-color="#ffa9c1" stop-opacity=".552" offset="0%"/><stop stop-color="#ff3bc3" offset="100%"/></linearGradient><linearGradient x1="12.3008417%" y1="44.8247827%" x2="104.491937%" y2="65.2262568%" id="AG"><stop stop-color="#ed92cb" offset="0%"/><stop stop-color="#d60c98" offset="100%"/></linearGradient><linearGradient x1="12.3008417%" y1="49.2679853%" x2="104.491937%" y2="52.1536956%" id="AH"><stop stop-color="#ed92cb" offset="0%"/><stop stop-color="#d60c98" offset="100%"/></linearGradient><linearGradient x1="50%" y1="0%" x2="50%" y2="100%" id="AI"><stop stop-color="#fff" offset="0%"/><stop stop-color="#fff" stop-opacity="0" offset="100%"/></linearGradient><linearGradient x1="0%" y1="0%" x2="100%" y2="100%" id="AJ"><stop stop-color="#ffe3bc" offset="0%"/><stop stop-color="#ff64f3" offset="100%"/></linearGradient><path d="M33 16.5C33 7.387 25.613 0 16.5 0S0 7.387 0 16.5 7.387 33 16.5 33 33 25.613 33 16.5" id="AK"/><filter x="-9.5%" y="-6.4%" width="118.9%" height="118.9%" id="AL"><feMorphology radius="1.12645879" operator="dilate" in="SourceAlpha"/><feOffset dy="1"/><feGaussianBlur stdDeviation=".5"/><feComposite in2="SourceAlpha" operator="out"/><feColorMatrix values="0 0 0 0 0 0 0 0 0 0 0 0 0 0 0 0 0 0 0.07 0"/></filter><path d="M14.914.148C6.677.148 0 6.8 0 15.004S6.677 29.86 14.914 29.86s14.913-6.65 14.913-14.856S23.15.148 14.914.148z" id="AM"/><linearGradient x1="50%" y1="0%" x2="50%" y2="100%" id="AN"><stop stop-color="#bc1a31" offset="0%"/><stop stop-color="#870b16" offset="100%"/></linearGradient><linearGradient x1="48.9659209%" y1="-72.2214368%" x2="49.9829086%" y2="41.6861826%" id="AO"><stop stop-color="#f6e6d6" offset="0%"/><stop stop-color="#e2b38d" offset="100%"/></linearGradient><linearGradient x1="52.2934999%" y1="11.2244565%" x2="50%" y2="100%" id="AP"><stop stop-color="#faeddf" offset="0%"/><stop stop-color="#f2d7bc" offset="100%"/></linearGradient><linearGradient x1="50%" y1="0%" x2="50%" y2="100%" id="AQ"><stop stop-color="#fcd13e" offset="0%"/><stop stop-color="#f8a41d" offset="100%"/></linearGradient><linearGradient x1="50%" y1="-179.444281%" x2="50%" y2="100%" id="AR"><stop stop-color="#fedb4d" offset="0%"/><stop stop-color="#fff" offset="100%"/></linearGradient><path d="M40 20.5C40 9.178 31.046 0 20 0S0 9.178 0 20.5 8.955 41 20 41s20-9.178 20-20.5" id="AS"/><filter x="-8.8%" y="-6.2%" width="117.7%" height="117.3%" id="AT"><feMorphology radius="1.53991131" operator="dilate" in="SourceAlpha"/><feOffset dy="1"/><feGaussianBlur stdDeviation=".5"/><feComposite in2="SourceAlpha" operator="out"/><feColorMatrix values="0 0 0 0 0 0 0 0 0 0 0 0 0 0 0 0 0 0 0.07 0"/></filter><path d="M17.692.216C7.92.216 0 8.432 0 18.566s7.92 18.35 17.692 18.35 17.692-8.216 17.692-18.35S27.463.216 17.692.216z" id="AU"/><linearGradient x1="50%" y1="-62.828508%" x2="50%" y2="60.6158248%" id="AV"><stop stop-color="#eed3c0" offset="0%"/><stop stop-color="#d9a78c" offset="100%"/></linearGradient><linearGradient x1="50%" y1="0%" x2="50%" y2="100%" id="AW"><stop stop-color="#fbcf00" offset="0%"/><stop stop-color="#f6a100" offset="100%"/></linearGradient><linearGradient x1="49.4636976%" y1="5.55111512e-15%" x2="51.5538177%" y2="107.681279%" id="AX"><stop stop-color="#ffb199" offset="0%"/><stop stop-color="#ff0844" offset="100%"/></linearGradient><linearGradient x1="50%" y1="0%" x2="50%" y2="100%" id="AY"><stop stop-color="#f6e1d3" offset="0%"/><stop stop-color="#eac0a7" offset="100%"/></linearGradient><linearGradient x1="50%" y1="0%" x2="50%" y2="64.9864898%" id="AZ"><stop stop-color="#bf986f" offset="0%"/><stop stop-color="#8b5f3c" offset="100%"/></linearGradient><linearGradient x1="2.53122945%" y1="0%" x2="97.4687705%" y2="100%" id="Aa"><stop stop-color="#ffe3bc" offset="0%"/><stop stop-color="#ff64f3" offset="100%"/></linearGradient><path d="M38 19.5C38 8.73 29.493 0 19 0S0 8.73 0 19.5 8.507 39 19 39s19-8.73 19-19.5" id="Ab"/><filter x="-8.8%" y="-6.1%" width="117.7%" height="117.2%" id="Ac"><feMorphology radius="1.36222924" operator="dilate" in="SourceAlpha"/><feOffset dy="1"/><feGaussianBlur stdDeviation=".5"/><feComposite in2="SourceAlpha" operator="out"/><feColorMatrix values="0 0 0 0 0 0 0 0 0 0 0 0 0 0 0 0 0 0 0.07 0"/></filter><path d="M17.45.213C7.812.213 0 8.324 0 18.33s7.812 18.117 17.45 18.117 17.45-8.11 17.45-18.117S27.086.213 17.45.213z" id="Ad"/><path d="M17.45.213C7.812.213 0 8.324 0 18.33s7.812 18.117 17.45 18.117 17.45-8.11 17.45-18.117S27.086.213 17.45.213z" id="Ae"/><linearGradient x1="50%" y1="-38.5011711%" x2="50%" y2="56.9472272%" id="Af"><stop stop-color="#eed3c0" offset="0%"/><stop stop-color="#d9a78c" offset="100%"/></linearGradient><linearGradient x1="50%" y1="0%" x2="50%" y2="100%" id="Ag"><stop stop-color="#a20305" offset="0%"/><stop stop-color="#690102" offset="100%"/></linearGradient><path d="M15.697 0C7.028 0 0 7.1 0 15.88s7.028 15.88 15.697 15.88 15.698-7.1 15.698-15.88S24.367 0 15.697 0z" id="Ah"/><linearGradient x1="50%" y1="0%" x2="50%" y2="100%" id="Ai"><stop stop-color="#db6256" offset="0%"/><stop stop-color="#b5332b" offset="100%"/></linearGradient><linearGradient x1="50%" y1="-13.8113775%" x2="50%" y2="97.8865607%" id="Aj"><stop stop-color="#c81818" offset="0%"/><stop stop-color="#580909" offset="100%"/></linearGradient><linearGradient x1="50%" y1="0%" x2="50%" y2="100%" id="Ak"><stop stop-color="#fff" offset="0%"/><stop stop-color="#ffc9e2" offset="100%"/></linearGradient><linearGradient x1="13.3983299%" y1="-16.894794%" x2="73.3195763%" y2="141.883267%" id="Al"><stop stop-color="#fff" stop-opacity="0" offset="0%"/><stop stop-color="#ffcdc6" offset="100%"/></linearGradient><linearGradient x1="50%" y1="145.716818%" x2="50%" y2="8.95730196%" id="Am"><stop stop-color="#fff" stop-opacity="0" offset="0%"/><stop stop-color="#fb8240" offset="100%"/></linearGradient><path id="An" d="M257.406 355h29.19c1.88 0 3.406 1.525 3.406 3.406V383h-36v-24.594c0-1.88 1.525-3.406 3.406-3.406z"/></defs><g fill="none" fill-rule="evenodd"><use fill="url(#A)" xlink:href="#B"/><use fill="#fff7f3" xlink:href="#B"/><g transform="translate(88 54)"><path d="M208.182 430v-94.655l74.358-43.43V430h-74.358zm-85.878-196.385V69.092h61.79V84.2l-10.773 4.277c-1.892.73-3.162 2.492-3.233 4.486v24.64h-11.547c-2.73 0-5.755 2.056-5.755 4.735v76.337l-14.83 8.396c-1.53.867-2.473 2.47-2.472 4.204V241.7l-13.182-8.085zm151.858 50.516v-45.57H337v190.392h-46.302v-145.76c0-1.744-.537-3.355-2.072-4.227a5.43 5.43 0 0 0-5.164 0l-9.3 5.164zm-52.365-112.52v144.6l-21.822 12.666c-1.5.872-2.426 2.484-2.425 4.228V430h-7.274V276.88c0-1.718-.897-3.3-2.363-4.2l-40.473-24.314v-33.604l74.358-43.16zm43.986 118.502l-34.134 19.584v-146.57c0-1.732-.528-3.334-2.037-4.2-1.58-.866-3.496-.866-5.076 0l-60.342 34.515v-65.768h101.588v162.44zM113.926 189.395v39.957l-14.8-8.87c-1.61-.896-3.564-.917-5.19-.053-1.595.833-2.64 2.435-2.755 4.226V430H27V189.395h86.926zm67.027-71.135V96.218L250.074 67v51.26h-69.122zM100.31 428.954v-196.67l79.595 46.967v149.702H100.31z" fill="url(#C)" opacity=".097"/><path d="M483.996 414v-86.595l67.878-39.733V414h-67.878zm-78.32-179.65V84.088h56.39v13.797l-9.832 3.906c-1.727.667-2.886 2.276-2.95 4.098v22.506h-10.538c-2.49 0-5.252 1.878-5.252 4.324v69.72l-13.534 7.668c-1.397.792-2.257 2.256-2.256 3.84v27.788l-12.03-7.384zm138.89 45.982v-41.73H602v174.352h-42.32v-133.48c0-1.597-.49-3.073-1.894-3.87-1.47-.798-3.25-.798-4.72 0l-8.5 4.73zM496.528 178.05v132.052l-19.92 11.566a4.46 4.46 0 0 0-2.213 3.861V414h-6.64V274.177a4.46 4.46 0 0 0-2.157-3.826L428.65 248.15v-30.686l67.878-39.412zm40.727 107.423l-31.228 17.86V169.666c0-1.58-.483-3.04-1.863-3.83a4.85 4.85 0 0 0-4.644 0l-55.205 31.476v-59.98h92.94v148.14zm-138.89-91.762v36.583l-13.514-8.122a4.95 4.95 0 0 0-4.74-.049 4.71 4.71 0 0 0-2.515 3.87V414H319V193.71h79.365zm61.613-64.73V108.78L522.635 82v46.98h-62.657zm-74.144 283.975V233.384l73.1 42.884v136.688h-73.1z" fill="url(#D)" opacity=".115" transform="matrix(-1 0 0 1 921 0)"/><path d="M442.586 415.975c58.524-.257 70.69-7.092 36.503-20.505L253.975 390C166.658 391.718 123 395.86 123 402.427c0 9.85 231.8 13.934 319.586 13.548z" fill-opacity=".05" fill="#7a1c1c" class="G"/><g opacity=".4"><use fill="url(#E)" xlink:href="#G"/><use fill="url(#F)" xlink:href="#G"/></g><g fill="#7a1c1c" class="G"><ellipse fill-opacity=".05" cx="116.5" cy="443" rx="33.5" ry="4"/><ellipse fill-opacity=".04" cx="530.5" cy="440" rx="39.5" ry="5"/><ellipse fill-opacity=".06" cx="406.5" cy="455" rx="39.5" ry="5"/></g><circle fill="url(#H)" cx="94" cy="156" r="31" class="G"/><circle fill="url(#I)" cx="179" cy="174" r="9" class="G"/><circle fill="url(#J)" cx="125.5" cy="231.5" r="18.5" class="G"/><use filter="url(#L)" xlink:href="#K" class="D"/><use xlink:href="#K" class="B"/><path fill="#f5f5f5" d="M228 137h172v247H228z"/><path fill="url(#M)" d="M228 137h172v105H228z"/><path d="M256 149h14a2 2 0 1 1 0 4h-14a2 2 0 1 1 0-4zm23 0h52a2 2 0 1 1 0 4h-52a2 2 0 1 1 0-4zm90 0h6a2 2 0 1 1 0 4h-6a2 2 0 1 1 0-4zm-15 0h6a2 2 0 1 1 0 4h-6a2 2 0 1 1 0-4z" opacity=".286" class="B"/><path d="M272.746 170h84.508c2.07 0 3.746 1.677 3.746 3.746v.508c0 2.07-1.677 3.746-3.746 3.746h-84.508c-2.07 0-3.746-1.677-3.746-3.746v-.508c0-2.07 1.677-3.746 3.746-3.746z" fill="url(#N)" opacity=".752"/><path d="M286.746 184h54.508c2.07 0 3.746 1.677 3.746 3.746v.508c0 2.07-1.677 3.746-3.746 3.746h-54.508c-2.07 0-3.746-1.677-3.746-3.746v-.508c0-2.07 1.677-3.746 3.746-3.746z" fill="url(#O)" opacity=".548"/><path d="M309.746 200h10.508c2.07 0 3.746 1.677 3.746 3.746v.508c0 2.07-1.677 3.746-3.746 3.746h-10.508c-2.07 0-3.746-1.677-3.746-3.746v-.508c0-2.07 1.677-3.746 3.746-3.746z" fill="url(#P)"/><path fill="#f0e6e6" d="M228 333h172v50H228z"/><g transform="translate(146 339)"><path d="M40.563 62.565v6.275c0 .545-.436 1-.99 1H2.308a.96.96 0 0 1-.672-.267c-.198-.178-.316-.435-.316-.723v-6.275c0-.544.435-1 .99-1h37.265c.554 0 .99.445.99 1" class="L"/><g fill="url(#R)"><path d="M42.707 54.07v6.276c0 .544-.436 1-.99 1H4.452a.96.96 0 0 1-.672-.268c-.198-.178-.317-.435-.317-.722V54.07c0-.544.436-.99.99-.99h37.265c.554 0 .99.445.99.99"/><path d="M46.17 36.913v6.276c0 .544-.436.99-.99.99H7.916a.96.96 0 0 1-.672-.267c-.198-.178-.317-.435-.317-.722v-6.276c0-.544.436-1 .99-1H45.18c.554 0 .99.445.99 1"/></g><path d="M94.097 19.785v6.276c0 .544-.436 1-.99 1H55.843a.96.96 0 0 1-.673-.268c-.198-.178-.316-.435-.316-.722v-6.276c0-.544.435-.99.99-.99h37.265c.554 0 .99.445.99.99" class="L"/><g transform="translate(0 44.438)"><mask id="Ao" class="B"><use xlink:href="#S"/></mask><path d="M39.243 1.094V7.37c0 .544-.435 1-.99 1H.99a.96.96 0 0 1-.672-.268C.12 7.914 0 7.657 0 7.37V1.094c0-.544.436-1 .99-1h37.265c.554 0 .99.445.99 1" mask="url(#Ao)" class="I"/></g><path d="M40.975 28.458v6.276c0 .544-.436 1-.99 1H2.72c-.267 0-.495-.1-.672-.268a.96.96 0 0 1-.317-.722v-6.276c0-.544.436-1 .99-1h37.265c.554 0 .99.445.99 1" class="I"/><path d="M51.78.456l3.39 5.28c.294.458.17 1.07-.297 1.368L23.522 27.25a.96.96 0 0 1-.711.139.96.96 0 0 1-.657-.437l-3.39-5.28c-.294-.458-.168-1.07.298-1.368L50.413.158c.467-.3 1.073-.16 1.367.298" fill="url(#U)"/><path d="M89.626 11.33v6.276c0 .544-.436 1-.99 1H51.37c-.267 0-.495-.1-.672-.268a.96.96 0 0 1-.317-.722V11.33c0-.544.436-1 .99-1h37.265c.554 0 .99.445.99 1" class="I"/><g class="L"><path d="M87.14 62.565v6.275c0 .545-.436 1-.99 1H48.886c-.267 0-.495-.1-.672-.267a.96.96 0 0 1-.317-.723v-6.275c0-.544.436-1 .99-1H86.15c.554 0 .99.445.99 1"/><path d="M85.908 54.07v6.276c0 .544-.436 1-.99 1H47.654a.96.96 0 0 1-.673-.268c-.198-.178-.316-.435-.316-.722V54.07c0-.544.436-.99.99-.99h37.265c.554 0 .99.445.99.99"/><path d="M90.014 36.892v6.276c0 .544-.436.99-.99.99H51.76a.96.96 0 0 1-.673-.267c-.198-.178-.316-.435-.316-.722v-6.276c0-.544.436-1 .99-1h37.265c.554 0 .99.445.99 1"/></g><path d="M87.43 45.532v6.276c0 .544-.436 1-.99 1H49.174a.96.96 0 0 1-.672-.268c-.198-.178-.316-.435-.316-.722v-6.276c0-.544.435-1 .99-1H86.44c.554 0 .99.445.99 1" class="I"/><g transform="translate(55.572 27.281)"><mask id="Ap" class="B"><use xlink:href="#V"/></mask><path d="M39.436 1.057v6.276c0 .544-.436.99-.99.99H1.182a.96.96 0 0 1-.673-.267C.312 7.877.193 7.62.193 7.333V1.057c0-.544.435-1 .99-1h37.265c.554 0 .99.445.99 1" fill="#ffcb00" mask="url(#Ap)"/></g></g><g transform="matrix(-1 0 0 1 157 286)"><path fill="#d6ddea" d="M23.796 154.842l1.25-9.728 4.582-.685-2.207 10.183z"/><g transform="translate(0 .26)"><g transform="translate(21.402 151.914)"><mask id="Aq" class="B"><use xlink:href="#W"/></mask><path d="M6.898 1.13c.295.042.575.15.8.337 1.568 1.3 3.484 3.144 5.57 3.978 2.462.985 2.76 1.675-.933 1.675-3.42 0-4.34-.21-5.186-.228-1.233-.025-1.207.228-4.91.228-3.107 0-2.135-3.956-1.023-5.795.338-.56.794-.876 1.468-.78l4.213.585z" fill="url(#X)" mask="url(#Aq)"/></g><path fill="#d6ddea" d="M36.17 154.582l1.25-9.728 4.582-.685-2.207 10.183z"/><g transform="translate(33.292 151.914)"><mask id="Ar" class="B"><use xlink:href="#Y"/></mask><path d="M7.38 1.13c.296.042.577.15.803.337 1.568 1.3 6.34 3.626 8.788 3.978 2.624.377 2.758 1.675-.935 1.675s-6.4-.33-8.046-.286-1.22.286-5.267.286C-.384 7.12.587 3.165 1.7 1.326c.338-.56.794-.876 1.468-.78l4.21.585z" fill="url(#X)" mask="url(#Ar)"/></g><path d="M26.823 31.203L22.34 52.53c-.273 1.27-1.2 2.208-2.426 2.47-.25.06-.5.107-.82.107-.048 0-.095 0-.143-.012-1.26-.13-3.293-2.1-7.503-8.343a205.32 205.32 0 0 1-2.806-4.284c-.95.344-3.246 1.163-4.375 1.163-1.522 0-3.424-1.448-4.184-2.908-.715-1.353 3.352-.653 4.874-.653.75 0 2.045-1.2 2.712-1.578.034-.024.082-.036.118-.06.084-.036.18-.083.275-.12a5.15 5.15 0 0 1 .225-.071c.095-.036.202-.047.297-.07.073-.012.143-.024.215-.024.118-.012.225-.012.332-.012.06 0 .13.012.2.012.12.012.227.036.345.06.06.012.107.024.166.047.108.036.226.07.345.13a.44.44 0 0 1 .131.059 1.82 1.82 0 0 1 .321.202.53.53 0 0 1 .131.095c.095.07.2.154.275.25.034.047.082.095.118.142.048.047.095.083.132.13a122.73 122.73 0 0 0 3.28 4.356c1.14 1.436 2.26 2.79 3.198 3.857l3.662-17.4 5.398 1.127z" fill="url(#Z)"/><path d="M27.37 30.954l-4.566 21.672c-.214 1.01-.797 1.85-1.604 2.35-.334.225-.702.38-1.094.475-.322.07-.62.12-.93.12-2.116 0-4.245-1.9-8.668-7.418l5.065-4.047 1.914 2.326 3.543-16.806.7.142 5.648 1.187z" fill="url(#a)"/><path d="M59.175 38.585c-.25 1.092-.916 1.946-1.9 2.433-.926.475-1.926.676-2.937.676-5.695 0-12.163-6.42-14.268-8.676-1.034-1.116-.962-2.86.144-3.893 1.116-1.033 2.865-.973 3.9.142 3.055 3.276 6.837 5.993 9.106 6.74l-.19-.404c-.905-2.04-2.414-5.673-4.21-9.186-.762-1.52-1.594-3.003-2.45-4.332 0 0-3.292 3.216-6.312 2.243s-1.783-1.39-1.783-2.575a2.75 2.75 0 0 1 2.757-2.753c.417 0 1.118-.06 1.904-.154l3.352-.45h.07c.144-.024.273-.024.404-.024h.155a2.17 2.17 0 0 1 .37.059l.165.036c.12.036.214.07.32.107.07.036.13.06.2.083a3.43 3.43 0 0 1 .263.166c.07.036.13.083.202.13.06.06.13.12.202.178.07.07.13.142.202.214.023.036.048.06.07.083a166.4 166.4 0 0 1 3.412 4.581c.737 1.033 1.416 2.03 2.033 2.967l.844 1.306c.06.07.095.154.143.225a48.92 48.92 0 0 1 1.321 2.208l.605 1.116c.382.724.702 1.4.976 2.03.26.617.463 1.187.617 1.71.037.07.048.13.06.178.06.214.12.427.155.63.013.024.024.047.013.06a5.19 5.19 0 0 1 .107.546c.083.617.083 1.15-.025 1.602" fill="url(#Z)"/><path d="M37.12 36.485a3.25 3.25 0 0 1-1.663.451c-1.107 0-2.19-.558-2.795-1.578-.036-.047-.357-.582-2.045-3.252-1.688-2.682-1.736-6.753-1.558-9.28l.048-.736.166-1.34a3.25 3.25 0 0 1 3.711-2.742c1.783.273 3.007 1.923 2.745 3.703-.143.938-.214 2.018-.214 3.038l.012.44.012.593c.07 1.246.263 2.314.594 2.848l2.128 3.394a3.25 3.25 0 0 1-1.141 4.462" fill="#ffaf84"/><path d="M48.112 87.18l-.465 27.718c.207 10.714-6.107 35.665-6.354 36.864l-6.133-1.092c1.624-7.875 2.42-28.237 4.056-35.135-.133-5.793-1.745-23.914-2.055-28.14h-.837l-2.754 31.368c-.705 8.785-4.368 31.737-4.387 32.004l-5.4-.586c.02-.267-1.36-21.37 1.1-31.636 1.9-7.95.75-28.028.416-33.318-.668-2.39-1.344-6.73-.208-12.92H48.3s.322 7.4-.188 14.87z" fill="url(#b)"/><path d="M35.73 21.708c-.143.938-.214 2.018-.214 3.038l.012.44c-2.426-.463-4.613-1.555-6.42-3.098l.166-1.34a3.25 3.25 0 0 1 3.71-2.742c1.783.273 3.008 1.923 2.747 3.703" fill="#ed8c62"/><path d="M43.005 13.494c0 5.716-2.527 11.08-9.15 11.022-5.727-.05-10.37-4.635-10.37-10.35s4.642-10.35 10.37-10.35 9.15 3.963 9.15 9.68" fill="url(#Z)"/><path d="M21 30.54c1.613 9.24 4.767 32.437 4.083 41.772H48.3s-1.4-34.38-3.6-42.757a2.29 2.29 0 0 0-2.219-1.698H23.26c-1.426 0-2.508 1.282-2.263 2.683" fill="url(#c)"/><path d="M22.216 6.464c-.262-.804-.14-1.724.554-2.65C24.578 1.41 29.784-.34 37.26.503c5.486.62 7.9 2.717 7.1 4.783-.53 1.364-2.7 3.824-6.614 3.924l-.16.004.09 1.095c.364 4.527-4.32 12.243-9.034 11.447s-8.376-4.994-8.376-10.883c0-1.93.778-3.374 1.948-4.408z" fill="url(#d)"/><path d="M54.5 42.083c-5.977 0-12.632-6.474-14.76-8.72l4.7-4.446c2.45 2.58 5.478 4.878 7.694 6-.818-1.472-2.153-3.622-4.29-6.753l5.358-3.642c5.643 8.27 7.202 11.776 6.41 14.425-.356 1.186-1.207 2.134-2.338 2.603-.896.37-1.83.535-2.783.535" fill="url(#e)"/><path d="M33.683 14.6a3.53 3.53 0 0 0 1.258 2.705c.9.76 2.29.075 2.29-1.104v-3.202c0-1.18-1.388-1.866-2.29-1.105-.77.65-1.258 1.62-1.258 2.706" fill="#ffaf84"/><mask transform="translate(22.04)" class="B"><use xlink:href="#f"/></mask></g></g><rect x="254" y="227" width="36" height="37" rx="3.406" class="B"/><use xlink:href="#An" class="M"/><use filter="url(#h)" xlink:href="#g" class="D"/><use xlink:href="#g" class="B"/><use filter="url(#j)" xlink:href="#i" class="D"/><use xlink:href="#i" class="B"/><use filter="url(#h)" xlink:href="#k" class="D"/><use xlink:href="#k" class="B"/><rect fill="#f09944" x="305" y="234" width="21" height="11" rx="2.043" class="H"/><g class="N"><rect x="305" y="250" width="18" height="2" rx="1"/><rect x="305" y="254" width="10" height="2" rx="1"/></g><use xlink:href="#An" x="44" class="M"/><use filter="url(#h)" xlink:href="#l" class="D"/><use xlink:href="#l" class="B"/><use filter="url(#h)" xlink:href="#m" class="D"/><use xlink:href="#m" class="B"/><use xlink:href="#An" x="88" class="M"/><use filter="url(#h)" xlink:href="#n" class="D"/><use xlink:href="#n" class="B"/><rect fill="#e94f44" x="349" y="234" width="21" height="11" rx="2.043" class="H"/><rect fill="#1abc9c" x="349" y="280" width="21" height="12" rx="2.043" class="H"/><rect fill="url(#o)" x="193" y="219" width="33" height="19" rx="2.043" class="H"/><path d="M536.8 316.412l-23.273 10.8c-1.706.792-3.73.052-4.523-1.654-.226-.488-.334-1.022-.315-1.56l.885-24.206c.07-1.88 1.648-3.348 3.528-3.28.573.02 1.132.186 1.624.48l22.388 13.395c1.614.966 2.14 3.057 1.174 4.67-.35.586-.87 1.053-1.488 1.34z" fill="#fb8240"/><path d="M563.844 315.072l7.23 7.338c.528.536.522 1.398-.014 1.926a1.36 1.36 0 0 1-.532.324l-9.203 3.013c-.715.234-1.484-.156-1.718-.87a1.36 1.36 0 0 1-.044-.679l1.973-10.35c.14-.74.854-1.224 1.593-1.083a1.36 1.36 0 0 1 .715.382z" fill="url(#p)" transform="matrix(-.990268 -.139173 .139173 -.990268 1081.590687 717.246637)"/><rect fill="url(#q)" opacity=".44" x="523" y="266" width="9" height="9" rx="2.043" class="G"/><rect fill="#9013fe" x="305" y="280" width="21" height="12" rx="2.043" class="H"/><rect fill="#1a9ed4" x="261" y="280" width="21" height="12" rx="2.043" class="H"/><g class="N"><rect x="349" y="250" width="18" height="2" rx="1"/><rect x="349" y="294" width="18" height="2" rx="1"/></g><rect fill="#dcc7f1" x="192" y="246" width="27" height="3" rx="1.5"/><g class="N"><rect x="303" y="294" width="18" height="2" rx="1"/><rect x="261" y="294" width="18" height="2" rx="1"/><rect x="349" y="254" width="10" height="2" rx="1"/><rect x="349" y="299" width="10" height="2" rx="1"/><rect x="192" y="253" width="18" height="3" rx="1.5"/><rect x="305" y="299" width="10" height="2" rx="1"/><rect x="261" y="299" width="10" height="2" rx="1"/></g><use filter="url(#s)" xlink:href="#r" class="D"/><use fill="#fb8240" xlink:href="#r"/><g transform="translate(420 330)"><path d="M65.722 35.21c5.905-3.166 9.28.844 8.225 4.22s2.32-1.267 4.85-1.688 4.85-.422 5.905 3.588-5.134 19.922-22.217 20.555-40.622-6.834-49.058-1.98S38.304 43.23 41.257 40.9s15.607-6.333 15.607-6.333c.843 1.267 2.953 3.8 8.858.633z" fill="url(#t)"/><g stroke-width=".681"><path d="M23.015 37.93s13.786-21.25 23.47-29.414" stroke="url(#u)"/><path d="M15.192 40.25s5.4-15.198 10.17-21.674" class="J"/><path d="M28.492 43.348s10.915-12 17.993-16.255" stroke="url(#v)"/></g><use fill="url(#E)" xlink:href="#x"/><use fill="url(#F)" xlink:href="#x"/><use fill="url(#w)" xlink:href="#x"/><path d="M55.993 13.28c-1.643 1.625-5.83.117-9.354-3.37S41.59 2.28 43.234.654s5.83-.117 9.354 3.37 5.048 7.63 3.405 9.256" fill="url(#y)"/><path d="M29.9 18.808c-.6.9-2.768.658-4.843-.537s-3.27-2.895-2.67-3.793 2.768-.658 4.843.537 3.27 2.894 2.67 3.793" class="B"/><path d="M50.723 29.187c-.897.72-2.822-.328-4.3-2.34s-1.946-4.226-1.05-4.946 2.822.328 4.3 2.34 1.946 4.226 1.05 4.946" fill="url(#z)"/></g><g transform="translate(332 286)"><path d="M56.115 163.01s-6.557 3.084-4.5 5.523c1.8.932 2.764.788 4.5 2.15s11.893 2.367 5.336-6.167l-5.336-1.506" fill="#4d4f68"/><path d="M56.89 163.01s-6.557 2.804-4.5 5.02c1.8.848 2.764.717 4.5 1.956s11.893 2.152 5.336-5.607l-5.336-1.37" fill="url(#AA)"/><g transform="translate(85.359 163.791)"><mask id="As" class="B"><use xlink:href="#AB"/></mask><path d="M9.07.252s6.405 4.392 3.827 6.537c-2.055.634-3.05.3-5.107 1.4S-5.156 8.457 3.187.832L9.07.252" fill="#4d4f68" mask="url(#As)"/></g><path d="M94.386 163.013s5.973 4.222 3.613 6.208c-1.894.57-2.816.25-4.708 1.252s-11.97.08-4.337-6.993l5.433-.468" fill="url(#AA)"/><path d="M59.213 85.795l-1.76 2.767s-1.934 33.2-1.407 39.6-.176 35.46-.176 35.46l5.275.346s5.1-19.027 5.628-31.135 3.868-26.983 6.506-33.383c0 0 1.583.692 1.76 2.42s3.517 16.432 5.627 19.373 1.758 8.994 1.23 12.454 2.286 16.432 2.99 18.335 2.287 11.07 2.287 12.108 6.33-.173 6.33-.173.88-49.988 0-61.06-2.813-12.627-2.99-15.567l-31.302-1.556z" fill="url(#b)"/><path d="M101.72 38.754l9.15 3.005c1.584.334 4.4-.167 8.447-1.002s7.92-1.503 10.735-1.837 4.927-.835 4.75-3.17 1.408-1.336 1.584-.334.177 3.172 3.872 3.172 10.383 1.002.352 2.337-9.503.668-14.078 3.34-8.095 2.838-9.327 3.673-4.927.334-8.622-.668-10.03-2.504-10.03-2.504 3.695-6 3.168-6" class="O"/><g transform="translate(0 33.538)"><mask id="At" class="B"><use xlink:href="#AC"/></mask><path d="M45.2 5.622s-4.43.678-8.152 2.203c-3.013 1.525-7.443-.34-7.443-.34s-12.23-2.542-14.356-2.542-4.43-2.202-3.2-3.727S10.285.54 9.754 2.402 3.374 5.622.538 5.96s6.203.51 11.52 2.203 14.356 3.728 15.596 4.745 6.025 2.88 11.52 1.017l11.874-3.22L45.2 5.622z" mask="url(#At)" class="O"/></g><path d="M44.23 37.72l4.88 9.724s8.886-4.168 9.583-1.39 1.917 20.5-.697 34.034c-1.742 6.425-3.31 8.682 0 7.988 1.917 1.215 3.485 1.737 3.834 2.605s16.03 1.215 23.524-2.432c2.788-.52 6.97-.347 7.318.868l-2.1-43.932s1.046-1.563 2.1-.695c1.57.348 5.402 2.43 5.402 2.43s2.962-5.035 4.356-8.682c0 0-12.72-11.46-21.433-12.502H65.316s-8.19 1.215-21.084 11.98" fill="url(#AD)"/><path d="M68.266 6.24s-3.073 3.68-.512 10.837c1.408 2.675 3.33 4.415.448 8.094s9.988 1.472 9.988 1.472l.96.067s-.448-2.943-.384-7.023S68 6.24 68 6.24" class="O"/><path d="M68.243 12.95c.4 3.58 3.205 8.196 7.213 6.764s1.182.183 3.385-.215 4.095-.713 4.095-6.283c0 0-.8-5.173-.4-6.764S80.13-2.7 70.647 1.014s-3.74 5.437-3.74 5.437 1.47-.796 1.336 6.5z" fill="url(#b)"/></g><g transform="matrix(-.707107 .707107 -.707107 -.707107 585.924419 380.125846)"><path d="M70.597 56.39c-5.713-1.416-8.115-8.827-6.348-15.525s7.83-10.982 13.543-9.566 8.91 7.994 7.145 14.694S76.3 57.807 70.597 56.39z" fill="url(#AE)"/><path d="M75.546 31.337c-9.973-1.02-16.37-8.27-20.9-16.384C49.213 5.212 39.314-.42 28.006.025 11.915.66-.614 14.177.023 30.22S14.22 58.75 30.31 58.114c.016-.001.032-.002.047-.003 2.62.246 8.902.077 17.696-5.1 11.418-6.7 18.647.907 19.12 1.3l8.93-22.827c-.103-.016-.45-.156-.56-.168" fill="url(#AF)"/><path d="M55.527 32.116l-13.78-12.512a.84.84 0 0 0-.592-.211.81.81 0 0 0-.565.275.84.84 0 0 0 .063 1.171l13.96 12.673 18.564 7.6.6-1.544-18.247-7.453z" fill="url(#AG)"/><path d="M52.123 39.126l-18.68-.34c-.232.002-.423.08-.58.237s-.245.37-.25.596.077.44.23.605a.79.79 0 0 0 .572.259l18.392.334 18.265 7.277.595-1.58-18.545-7.388z" fill="url(#AH)"/><path stroke="url(#AI)" stroke-width="1.362" stroke-linecap="round" stroke-linejoin="round" d="M34.946 14.84l-6.55-.878 3.777 6.135-6.913.62 2.806 5.49-5.497.982 2.248 6.24-6.178-.087 2.63 5.444"/></g><g transform="translate(452 250)"><use filter="url(#AL)" xlink:href="#AK" class="D"/><use xlink:href="#AK" class="B"/><use stroke-width="2.253" fill="url(#AJ)" xlink:href="#AK" class="J P"/><g transform="translate(1.904 1.868)"><mask id="Au" class="B"><use xlink:href="#AM"/></mask><g fill="#870b16" class="E"><path d="M14.94 25.93H9.606s-2.462-2.37-1.23-5.888 2.298-4.906 2.38-8.667h4.186V25.93z"/><path d="M14.803 25.93h5.335s2.462-2.37 1.23-5.888-2.298-4.906-2.38-8.667h-4.186V25.93z"/></g><path d="M21.468 9.784c0-3.59-2.922-6.502-6.527-6.502s-6.527 2.91-6.527 6.502 2.922 6.502 6.527 6.502 6.527-2.91 6.527-6.502" fill="url(#AN)" class="E"/><path fill="url(#AO)" d="M17.125 23.707l-2.21 6.18-2.156-6.18v-4.77h4.368z" class="E"/><path d="M14.932 20.206c-1.127-.01-3.305-1.752-3.73-2.293-.463-.59-1.735-2.12-1.735-5.37 0-5.627 3.353-6.828 5.474-6.828 2.12.007 5.457 1.216 5.457 6.828 0 3.25-1.27 4.78-1.735 5.37-.425.54-2.604 2.284-3.73 2.293z" fill="url(#AP)" class="E"/><path d="M14.87 4.353c-.102-.013-.208-.022-.322-.023 0 0-3.582.267-4.58 4.914-.478.357-1.356 1.748-.2 3.297.16-1.31.64-2.26 1.475-2.62 1.48-.64 2.09-.045 3.803-1.356 1-.766 1.36-2.305 1.14-3.165-.398-1.068-1.415-1.028-1.32-1.046" fill="url(#AN)" class="E"/><path d="M15.96 5.644s-1.29 4.798 4.346 6.807c1.35-4.392-1.117-7.257-4.346-6.807" fill="url(#AN)" class="E"/><g class="K E"><path d="M8.412 13.885c-.094-.9.337-1.697.96-1.782s1.206.575 1.3 1.474-.337 1.697-.96 1.782-1.206-.574-1.3-1.473m13.058-.001c.094-.9-.337-1.697-.96-1.782s-1.206.575-1.3 1.474.337 1.697.96 1.782 1.205-.574 1.3-1.473"/><path d="M9.542 14.815l-.35.35.35.35.35-.35zm10.873 0l-.35.35.35.35.352-.35z"/></g><path d="M14.913 23.944s1.63-.402 1.988-1.717c.173-.632.168-1.14.168-1.14s3.563 1.2 4.358 2.437c.662 1.962.843 6.362.843 6.362H7.556s.182-4.4.843-6.362c.795-1.238 4.358-2.437 4.358-2.437s-.005.507.168 1.14c.36 1.315 1.988 1.717 1.988 1.717z" fill="url(#AQ)" class="E"/><path d="M14.94 18.224c.827 0 1.497-.506 1.497-1.13h-2.994c0 .624.67 1.13 1.497 1.13" class="B E"/></g></g><g transform="translate(193 95)"><use filter="url(#AT)" xlink:href="#AS" class="D"/><use xlink:href="#AS" class="B"/><use stroke-width="3.08" fill="url(#AR)" xlink:href="#AS" class="J P"/><g transform="translate(2.308 2.321)"><mask id="Av" class="B"><use xlink:href="#AU"/></mask><path fill="url(#AV)" d="M15.102 29.087h5.18v-5.893h-5.18z" class="F"/><path d="M14.473 26.705l3.22.278v9.933H6.564c.305-1.44 1.622-7.994 2.255-8.678.728-.786 5.654-1.533 5.654-1.533zm6.438 0s4.927.747 5.654 1.533c.633.684 1.95 7.24 2.255 8.678H17.692v-9.933l3.22-.278z" fill="url(#AW)" class="F"/><path d="M18.07 28.423l.612 6.53-1 1.936-1-1.936.612-6.53-.506-.525.884-.917.884.917-.506.525z" fill="url(#AX)" class="F"/><path d="M17.692 24.23c-1.334 0-4.177-1.426-4.683-2.095-.55-.727-1.81-3.356-1.81-7.37 0-6.95 3.978-8.434 6.494-8.434s6.494 1.483 6.494 8.434c0 4.013-1.262 6.642-1.81 7.37-.506.67-3.35 2.095-4.683 2.095V6.333z" fill="url(#AY)" class="F"/><path d="M25.438 16.424c.11-1.11-.4-2.096-1.14-2.2s-1.43.7-1.54 1.82.4 2.096 1.14 2.2 1.43-.7 1.54-1.82" class="F Q"/><path d="M9.947 16.424c-.11-1.11.4-2.096 1.14-2.2s1.43.7 1.54 1.82-.4 2.096-1.14 2.2-1.43-.7-1.54-1.82" class="F K"/><path d="M17.692 26.983l-2.63-1.097-.648.683 1.3 3zm0 0l2.63-1.097.648.683-1.3 3z" class="B F"/><path d="M11.993 34.676h3.283v-.75h-3.283zm8.117 0h3.283v-.75H20.1z" fill="#ffd522" class="F"/><path d="M17.63 4.996v-.008l.032.004.032-.004v.008c.68.092 6.62 1.028 6.62 5.77v3.46s-.487-.1-.836.214c-.376.327-.218 2.105-.218 2.105H22.8s.273-1.8-.527-2.395v-1.17s.31-.038.31-1.414-1.572-2.35-4.93-2.357c-3.36.006-4.93.985-4.93 2.357s.31 1.414.31 1.414v1.17c-.8.584-.527 2.395-.527 2.395h-.45s.158-1.778-.218-2.105c-.35-.303-.836-.214-.836-.214v-3.46c0-4.742 5.94-5.68 6.62-5.77z" fill="url(#AZ)" class="F"/><path d="M17.692 21.238c1.172 0 2.123-.402 2.123-.897H15.57c0 .495.95.897 2.123.897" class="B F"/></g></g><g transform="translate(327 62)"><use filter="url(#Ac)" xlink:href="#Ab" class="D"/><use xlink:href="#Ab" class="B"/><use stroke-width="2.724" fill="url(#Aa)" xlink:href="#Ab" class="J P"/><g transform="translate(1.551 .78)"><mask id="Aw" class="B"><use xlink:href="#Ad"/></mask><path d="M20.624 26.366s4.86.737 5.576 1.513c.625.676 1.924 7.148 2.224 8.568H17.45v-9.2l3.175-.89z" fill="#2a2d34" mask="url(#Aw)"/><mask id="Ax" class="B"><use xlink:href="#Ae"/></mask><path fill="url(#Af)" d="M14.894 28.837h5.1V23.02h-5.1z" class="C"/><path d="M17.45 23.923c-1.316 0-4.12-1.408-4.618-2.07-.542-.718-1.786-3.314-1.786-7.276 0-6.862 3.924-8.326 6.405-8.327s6.405 1.464 6.405 8.327c0 3.962-1.244 6.558-1.786 7.276-.5.66-3.303 2.068-4.62 2.07V6.252z" fill="url(#AY)" class="C"/><path d="M25.088 16.215c.11-1.096-.394-2.07-1.124-2.173s-1.41.7-1.52 1.797.394 2.07 1.124 2.173 1.4-.7 1.52-1.797" class="C Q"/><path d="M9.8 16.215c-.11-1.096.394-2.07 1.124-2.173s1.4.7 1.52 1.797-.394 2.07-1.124 2.173-1.4-.7-1.52-1.797" class="C K"/><path d="M12.1 7.72c4.362-6.57 10.47-3.177 11.48 1.134.717 1.59.892 4.03.66 5.283-1.014-.335-1.29.622-1.06 3.494-.922-.814-1.2-1.82-1.06-4.787.34-1.022.177-2.074-.135-2.96-.84-1.792-2.654-1.477-4.517-1.055-3.74-.914-4.556 1.067-4.556 1.067s-1.22-.632-.94-1.98l.128-.197c-1.356 1.183-1.74 4.793-1.44 6.417 1.014-.335 1.29.622 1.06 3.494.922-.814 1.2-1.82 1.06-4.787-.83-2.49 1.337-5.16 1.337-5.16-.828-.517-1.495-.422-2.018.034z" fill="url(#Ag)" class="C"/><path d="M14.274 26.366s-4.86.737-5.576 1.513c-.625.676-1.924 7.148-2.224 8.568H17.45v-9.2l-3.175-.89z" fill="#2f343a" class="C"/><path fill="#b9c7d0" d="M20.682 26.23l-3.233.688-3.233-.688 3.233 10.216" class="C"/><path fill="#129e95" d="M17.18 28.296l-.528 6.91.797 1.242.797-1.242-.528-6.91z" class="C"/><path d="M15.118 30.64l-2.572-3.96c.704-.265 1.46-.464 2.254-.598l2.65 10.365-3.715-5.522 1.383-.284zm4.662 0l2.572-3.96c-.704-.265-1.46-.464-2.254-.598l-2.65 10.365 3.715-5.522-1.383-.284z" fill="#3a404c" class="C"/><path fill="#129e95" d="M18.32 27.853l-.872.933-.872-.933.872-.933z" class="C"/><path d="M17.45 26.92l2.594-1.362 1.338.8-2.777 2.305zm0 0l-2.594-1.362-1.338.8 2.73 2.305z" class="B C"/><path d="M21.12 20.983c-1.283 0-2.2-1.082-3.67-1.082s-2.388 1.082-3.67 1.082c-1.406 0-2.29-2.517-2.558-3.4.362 2.54 1.193 4.2 1.6 4.753.5.66 3.302 2.07 4.618 2.07s4.12-1.408 4.62-2.07c.417-.552 1.248-2.216 1.6-4.756-.266.88-1.15 3.4-2.558 3.4" fill="url(#Ag)" class="C"/><path d="M17.45 22.193c.433 0 .783-.2.783-.423h-1.566c0 .234.35.423.783.423" class="B C"/></g></g><g opacity=".144" transform="translate(435 43)"><path d="M31.394 16.068c0-8.77-7.028-15.88-15.697-15.88S0 7.297 0 16.068s7.028 15.88 15.697 15.88 15.697-7.1 15.697-15.88" fill="#cd9e99"/><g transform="translate(0 .187)"><mask id="Ay" class="B"><use xlink:href="#Ah"/></mask><path d="M15.697 31.76v-8.596l-2.856-.24s-4.37.646-5.016 1.327c-.562.592-1.73 6.265-2 7.5h9.873v-8.596l2.856-.24s4.37.646 5.016 1.327c.562.592 1.73 6.265 2 7.5h-9.873z" fill="url(#Ai)" class="R"/><path d="M15.697 20.783c-1.184 0-3.706-1.234-4.155-1.813-.488-.63-1.607-2.905-1.607-6.378 0-6.015 3.53-7.3 5.762-7.3s5.762 1.284 5.762 7.3c0 3.473-1.12 5.748-1.607 6.378-.45.58-2.97 1.813-4.155 1.813zm0 2.382l-2.334-.95-.575.6 1.16 2.605zm0 0l2.334-.95.575.6-1.16 2.605z" class="B R"/><path d="M21.584 12.264s1.89-8.712-5.927-8.712c-7.857 0-5.884 8.472-5.884 8.472s1.074-.622 1.074 2.16h.197s.38-1.864.496-3.536c2.763 0 5.207-.358 7.26-2.078 1.167 0 1.325 1.47 1.325 2.595l-.51.2s.495.98.53 2.82h.354s-.052-3.067 1.084-1.92" fill="url(#Aj)" class="R"/><path fill="#fde2df" d="M13.4 24.985h4.597v-5.1H13.4z"/><path d="M22.57 14.027c.098-.96-.354-1.814-1.01-1.905s-1.27.614-1.368 1.575.354 1.814 1.01 1.905 1.27-.614 1.367-1.575" class="Q"/><path d="M8.825 14.027c-.098-.96.354-1.814 1.01-1.905s1.27.614 1.367 1.575-.354 1.814-1.01 1.905-1.27-.614-1.367-1.575" class="K"/></g><path d="M15.697 18.7c1.04 0 1.884-.348 1.884-.776h-3.767c0 .43.843.776 1.883.776" class="B"/></g><path d="M91.485 155.205c-.466 0-.844-.365-.844-.815v-3.18c0-2.32 1.956-4.2 4.36-4.2s4.36 1.89 4.36 4.2v3.18c0 .45-.378.815-.844.815s-.844-.365-.844-.815v-3.18c0-1.422-1.198-2.58-2.67-2.58s-2.67 1.157-2.67 2.58v3.18c0 .45-.378.815-.844.815zm13.183-1.538c.232 0 .375.18.32.4l-2.94 11.74c-.18.66-.886 1.195-1.583 1.195h-10.93c-.697 0-1.405-.535-1.583-1.195l-2.94-11.74c-.055-.22.088-.4.32-.4h4.512v1.027c0 .91.754 1.648 1.68 1.648s1.68-.74 1.68-1.648v-1.027h3.636v1.027c0 .91.755 1.648 1.68 1.648s1.68-.74 1.68-1.648v-1.027h4.463z" fill="url(#Ak)"/><path d="M535.334 214.613c.082.092.133.204.158.325.045.225.023.472-.088.674-.233.422-.743.586-1.187.637v-2.16c.274.073.55.154.8.288.116.062.228.135.316.234zm-2.73-2.758c.166-.2.47-.306.748-.355v1.295l-.303-.087a1.78 1.78 0 0 1-.311-.133.49.49 0 0 1-.209-.191c-.042-.086-.048-.187-.037-.278s.05-.176.112-.252zm2.526 4.013zm-.12-9.733c5.53 2.243 13.61 15.957-2.523 14.796-11.66-.838-4.976-12.393-.22-14.695-1.594-1.017-2.612-3.352-2.02-3.994.73-.8 2.03.627 3.223.485.842-.123 2.583-.82 3.384-.66.603.12-.377 2.855-1.844 4.07zm1.385 9.113c.037-.34-.02-.697-.19-.996.033.057.065.112-.001-.003l-.001-.002c-.217-.373-.592-.61-.99-.763-.262-.102-.537-.172-.81-.237v-1.77c.23.04.46.112.65.25.088.064.165.14.224.232a.82.82 0 0 1 .078.147c.02.05.03.105.05.156a.48.48 0 0 0 .422.299.48.48 0 0 0 .451-.269.46.46 0 0 0 .04-.266c-.01-.057-.027-.112-.045-.167s-.042-.115-.067-.17c-.09-.2-.22-.383-.38-.537-.334-.325-.782-.51-1.24-.592-.062-.01-.123-.02-.185-.028v-.514a.47.47 0 0 0-.276-.425c-.17-.077-.373-.047-.512.075-.1.088-.16.217-.16.35v.517c-.466.065-.93.242-1.28.558-.163.148-.297.327-.39.526-.1.213-.144.444-.142.677s.044.46.147.67a1.43 1.43 0 0 0 .42.497c.36.275.81.42 1.244.53v1.85c-.223-.062-.436-.165-.604-.324-.08-.077-.152-.166-.208-.263-.03-.05-.053-.1-.073-.153s-.033-.11-.05-.162c-.06-.175-.222-.302-.408-.318a.48.48 0 0 0-.463.249.46.46 0 0 0-.052.263c.006.054.022.106.037.158.017.057.037.114.06.17.085.212.207.41.358.582.302.348.715.583 1.16.703a3.15 3.15 0 0 0 .243.055v.544a.47.47 0 0 0 .276.425c.17.077.373.047.512-.075.1-.088.16-.217.16-.35v-.498c.477-.038.957-.174 1.34-.466.362-.277.605-.684.654-1.134z" fill="#ffd1a3"/><circle fill="url(#Al)" cx="148.5" cy="52.5" r="9.5"/><path d="M618.783 136.214c.59-.605.93-1.32.93-2.086 0-2.178-2.746-3.943-6.13-3.943-1.6 0-3.04.39-4.13 1.028-1.524-1.597-4.264-2.662-7.39-2.662-1.738 0-3.356.33-4.713.896-.808-4.75-7.062-8.446-14.66-8.446-5.298 0-9.943 1.797-12.543 4.495-1.163-.374-2.474-.583-3.863-.583-4.787 0-8.67 2.497-8.67 5.577 0 .937.36 1.82.996 2.596-.327-.018-.66-.027-.996-.027-6.413 0-11.613 3.344-11.613 7.47s5.2 7.47 11.613 7.47h59.114c5.12 0 9.273-2.67 9.273-5.966 0-2.84-3.085-5.218-7.217-5.82" fill="url(#Am)" opacity=".154"/><path d="M86.43 125.666c.7-.94 1.104-2.053 1.104-3.245 0-3.39-3.26-6.134-7.28-6.134-1.89 0-3.61.605-4.903 1.6-1.8-2.484-5.064-4.14-8.777-4.14-2.064 0-3.986.513-5.597 1.394-.96-7.388-8.386-13.14-17.41-13.14-6.29 0-11.807 2.795-14.895 6.993a11.83 11.83 0 0 0-4.587-.907c-5.685 0-10.296 3.884-10.296 8.676a7.58 7.58 0 0 0 1.182 4.037 16.51 16.51 0 0 0-1.182-.042C6.175 120.758 0 125.96 0 132.38S6.175 144 13.79 144H83.99c6.08 0 11.01-4.155 11.01-9.28 0-4.42-3.663-8.117-8.57-9.053" fill="url(#Am)" opacity=".12"/><path d="M387.527 25.92c.773-1.03 1.22-2.248 1.22-3.554 0-3.71-3.604-6.718-8.045-6.718-2.087 0-3.99.663-5.42 1.752-2-2.72-5.597-4.536-9.7-4.536-2.28 0-4.405.562-6.186 1.526-1.06-8.092-9.27-14.4-19.242-14.4-6.953 0-13.05 3.062-16.463 7.66-1.527-.636-3.248-.993-5.07-.993-6.283 0-11.38 4.254-11.38 9.502 0 1.596.474 3.1 1.307 4.422-.43-.03-.867-.046-1.307-.046-8.417 0-15.242 5.697-15.242 12.728S298.825 46 307.242 46h77.587c6.72 0 12.17-4.55 12.17-10.165 0-4.84-4.05-8.9-9.473-9.916" fill="url(#Am)" opacity=".06"/></g></g></svg>