<svg xmlns="http://www.w3.org/2000/svg" xmlns:xlink="http://www.w3.org/1999/xlink" viewBox="0 0 66.94 66.94"><defs><style>.cls-1{fill:url(#linear-gradient);}.cls-2{fill:#fff;}</style><linearGradient id="linear-gradient" x1="10.24" y1="10.97" x2="57.08" y2="56.34" gradientUnits="userSpaceOnUse"><stop offset="0" stop-color="#f37d6e"/><stop offset="1" stop-color="#ef5a90"/></linearGradient></defs><title>Dokan</title><g id="Layer_2" data-name="Layer 2"><g id="Layer_1-2" data-name="Layer 1"><circle class="cls-1" cx="33.47" cy="33.47" r="33.47"/><path class="cls-2" d="M21.76,26.24h0V19.16a22.49,22.49,0,0,1,13.42,4.2,4.67,4.67,0,0,0-3.81-.25,4.52,4.52,0,0,0-2.85,3.7c-.18,2.76,0,5.58,0,8.35v8.32c-1.12.1-2.25.13-3.27.14a27.45,27.45,0,0,0-3,.15,4.86,4.86,0,0,0-.53.1Z"/><path class="cls-2" d="M19.9,47.81a2.78,2.78,0,0,1,2.52-3.06c2.8-.38,8,.36,11.54-1.85a12.81,12.81,0,0,0,2.47-1.61l-.54,1.87s-1.64,5.71-6.62,6.44S23.36,47.62,19.9,47.81Z"/><path class="cls-2" d="M30.61,50.2c3.95-1,8.46-3.89,8.46-18.61S22,18.13,22,18.13c4.07-2.39,25-5.38,25,15.32S30.61,50.2,30.61,50.2Z"/></g></g></svg>