<svg xmlns="http://www.w3.org/2000/svg" xmlns:xlink="http://www.w3.org/1999/xlink" viewBox="0 0 66.94 66.94"><defs><style>.cls-1{fill:url(#linear-gradient);}.cls-2{fill:#fff;}</style><linearGradient id="linear-gradient" x1="15.26" y1="8.34" x2="50.76" y2="57.34" gradientUnits="userSpaceOnUse"><stop offset="0" stop-color="#00c6fb"/><stop offset="1" stop-color="#005bea"/></linearGradient></defs><title>ERP</title><g id="Layer_2" data-name="Layer 2"><g id="Layer_1-2" data-name="Layer 1"><circle class="cls-1" cx="33.47" cy="33.47" r="33.47"/><path class="cls-2" d="M44.86,21.38a102.68,102.68,0,0,0-13.63,5.9c-.93.52-1.9,1.1-3,1.78a3.59,3.59,0,0,1-2.4.84c-1-.13-2.41-1-2.31-2.14.14-1.59,2.73-2.92,3.91-3.69a32.65,32.65,0,0,1,5.78-2.92A21.62,21.62,0,0,1,41,19.32a6.5,6.5,0,0,1,1.69.2A15.6,15.6,0,0,1,44.86,21.38Z"/><path class="cls-2" d="M46,31.21c-1.35.49-13.27,4.86-15,8.42a3.65,3.65,0,0,0,0,3,3.47,3.47,0,0,0,3.48,2.06,7.38,7.38,0,0,0,1.21-.11,22.3,22.3,0,0,0,3.5-.86c1-.35,2-.78,3-1.19l.83-.34a50.29,50.29,0,0,0,8.35-4.66,18.19,18.19,0,1,1-9.65-20.4c-9.53,1.71-14.45,5.3-17.33,7.87l0,0-.32.33c-.93.95-2.2,2.24-1.39,4.33a3.57,3.57,0,0,0,2.86,2.13l.37,0a4.68,4.68,0,0,0,2.53-1c1-.67,2-1.24,2.92-1.75a96.63,96.63,0,0,1,16-6.62c1.52.67,4.42,4.07,4.23,7C49.84,30,47.46,30.67,46,31.21Z"/><path class="cls-2" d="M49.6,32.85a15.6,15.6,0,0,1-.29,3,50.24,50.24,0,0,1-7,4.28c-2.22,1.16-4.3,2.55-6.84,3.12-1.23.27-3.32-.47-3.24-2,.06-1.09,2-2.35,2.79-2.91a28.57,28.57,0,0,1,4.68-2.56,65.74,65.74,0,0,1,9.92-3.42C49.6,32.52,49.6,32.68,49.6,32.85Z"/><path class="cls-2" d="M22.63,28.57h0s0,0,0,0Z"/></g></g></svg>