<?xml version="1.0" encoding="UTF-8"?>
<svg width="73px" height="73px" viewBox="0 0 73 73" version="1.1" xmlns="http://www.w3.org/2000/svg" xmlns:xlink="http://www.w3.org/1999/xlink">
    <!-- Generator: Sketch 53 (72520) - https://sketchapp.com -->
    <title>Shape</title>
    <desc>Created with Sketch.</desc>
    <defs>
        <linearGradient x1="50%" y1="0%" x2="50%" y2="86.1364976%" id="linearGradient-1">
            <stop stop-color="#DFFFDB" offset="0%"></stop>
            <stop stop-color="#FFFFFF" offset="100%"></stop>
        </linearGradient>
        <path d="M145.834158,67.5574841 C145.750346,66.8124684 144.881666,66.252622 144.130518,66.252622 C141.70196,66.252622 139.546922,64.8266801 138.643139,62.62141 C137.719834,60.362699 138.31519,57.7285223 140.125122,56.0683086 C140.694843,55.5475075 140.764061,54.6756932 140.286237,54.0700968 C139.043265,52.4917205 137.6305,51.0659758 136.087976,49.8303304 C135.483943,49.3456166 134.597711,49.4130585 134.073939,49.9930191 C132.494341,51.7423664 129.656979,52.3925297 127.464473,51.4777261 C125.182831,50.5179613 123.744036,48.2060068 123.884839,45.7242645 C123.931182,44.944739 123.361461,44.266968 122.584283,44.1764539 C120.604756,43.9475065 118.607876,43.9404074 116.622433,44.160678 C115.854129,44.2454734 115.284409,44.9072713 115.310242,45.6769368 C115.396617,48.1342266 113.940468,50.4057554 111.681504,51.3310105 C109.515226,52.2158399 106.697783,51.5711982 105.121339,49.8374295 C104.600328,49.2663428 103.728492,49.1961402 103.121501,49.6692192 C101.533225,50.9153162 100.088711,52.3422441 98.8343009,53.9076053 C98.3450395,54.5161597 98.4170187,55.3982283 98.992458,55.9217902 C100.8369,57.592061 101.432454,60.2491127 100.474244,62.5338539 C99.5594175,64.7121078 97.2974956,66.1159635 94.7080191,66.1159635 C93.8677358,66.0889473 93.2692238,66.6529349 93.1773271,67.4168816 C92.9442328,69.4077971 92.9414719,71.4363774 93.1658893,73.4434632 C93.2491091,74.191634 94.1442149,74.7465505 94.9036448,74.7465505 C97.2113178,74.6875881 99.4268968,76.1162908 100.356316,78.3779597 C101.282777,80.6366707 100.687223,83.2692698 98.8745304,84.9308639 C98.3075709,85.451665 98.2355917,86.3220989 98.7134153,86.9276953 C99.9447527,88.4960145 101.357714,89.9231396 102.90576,91.1690393 C103.512949,91.6582887 104.39642,91.5892692 104.922756,91.0093086 C106.50827,89.2556229 109.345434,88.6066428 111.529263,89.5232212 C113.816624,90.480028 115.25542,92.7917853 115.114617,95.274908 C115.068668,96.0548279 115.641149,96.7337821 116.415172,96.8229158 C117.427811,96.9410377 118.446563,97 119.468077,97 C120.437725,97 121.407571,96.9467564 122.37722,96.8388889 C123.145721,96.7540935 123.715047,96.0922956 123.689213,95.3212497 C123.600275,92.8653403 125.058987,90.5938115 127.314993,89.670134 C129.495864,88.7793886 132.301476,89.4313267 133.878116,91.1633206 C134.402085,91.7332241 135.267808,91.8020463 135.878152,91.3305449 C137.463469,90.0874059 138.905025,88.6616612 140.165352,87.0919616 C140.654416,86.4847876 140.585395,85.6013386 140.006997,85.0779739 C138.162555,83.4077031 137.564043,80.750257 138.522254,78.4670934 C139.423078,76.3178276 141.600992,74.8747294 143.94357,74.8747294 L144.271322,74.883209 C145.031146,74.9449321 145.730232,74.3596471 145.822326,73.5840656 C146.055814,71.5913754 146.058575,69.5645698 145.834158,67.5574841 Z M119.050948,79.9322034 C114.097228,79.9322034 110.067797,75.9028169 110.067797,70.9491525 C110.067797,65.9956886 114.097228,61.9661017 119.050948,61.9661017 C124.004467,61.9661017 128.033898,65.9956886 128.033898,70.9491525 C128.033898,75.9028169 124.004467,79.9322034 119.050948,79.9322034 Z" id="path-2"></path>
        <filter x="-35.8%" y="-50.9%" width="171.7%" height="171.7%" filterUnits="objectBoundingBox" id="filter-3">
            <feOffset dx="0" dy="-8" in="SourceAlpha" result="shadowOffsetOuter1"></feOffset>
            <feGaussianBlur stdDeviation="5" in="shadowOffsetOuter1" result="shadowBlurOuter1"></feGaussianBlur>
            <feColorMatrix values="0 0 0 0 0   0 0 0 0 0   0 0 0 0 0  0 0 0 0.1 0" type="matrix" in="shadowBlurOuter1"></feColorMatrix>
        </filter>
    </defs>
    <g id="Page-1" stroke="none" stroke-width="1" fill="none" fill-rule="evenodd">
        <g id="Home-Page-Design-for-Dokan" transform="translate(-789.000000, -1274.000000)" fill-rule="nonzero">
            <g id="Reasons-to-Use-Dokan" transform="translate(410.000000, 953.000000)">
                <g id="2" transform="translate(296.000000, 279.000000)">
                    <g id="Shape" transform="translate(119.500000, 70.500000) scale(1, -1) translate(-119.500000, -70.500000) ">
                        <use fill="black" fill-opacity="1" filter="url(#filter-3)" xlink:href="#path-2"></use>
                        <use fill="url(#linearGradient-1)" xlink:href="#path-2"></use>
                    </g>
                </g>
            </g>
        </g>
    </g>
</svg>