<?xml version="1.0" encoding="UTF-8"?>
<svg width="76px" height="76px" viewBox="0 0 76 76" version="1.1" xmlns="http://www.w3.org/2000/svg" xmlns:xlink="http://www.w3.org/1999/xlink">
    <!-- Generator: Sketch 53 (72520) - https://sketchapp.com -->
    <title>Combined Shape</title>
    <desc>Created with Sketch.</desc>
    <defs>
        <linearGradient x1="50%" y1="84.6888951%" x2="50%" y2="37.2558594%" id="linearGradient-1">
            <stop stop-color="#DCDBFF" offset="0%"></stop>
            <stop stop-color="#FFFFFF" offset="100%"></stop>
        </linearGradient>
        <path d="M120.858704,42 C124.316895,42 127.129032,44.8927361 127.129032,48.3225806 C127.129032,51.7524252 124.316895,54.6451613 120.858704,54.6451613 C117.400514,54.6451613 114.483871,51.7524252 114.483871,48.3225806 C114.483871,44.8927361 117.400514,42 120.858704,42 Z M127.385688,54.6451613 C128.893886,56.4069434 129.83871,58.7149563 129.83871,61.2688172 L129.83871,62.9247312 C129.83871,63.84001 129.135646,64.5806452 128.266797,64.5806452 L112.44288,64.5806452 C111.574032,64.5806452 110.870968,63.84001 110.870968,62.9247312 L110.870968,61.2688172 C110.870968,58.7149563 111.815792,56.4069434 113.323989,54.6451613 C115.051521,56.6630581 117.63061,57.9569892 120.407236,57.9569892 C123.183862,57.9569892 125.658156,56.6630581 127.385688,54.6451613 Z M106.911139,92.3183715 C107.724473,93.9541267 107.058808,95.9415886 105.425661,96.7529144 L103.260356,97.828846 C102.450206,98.2295537 101.461754,97.9042746 101.055416,97.0868925 L91.1741934,77.2662301 C90.7665381,76.4485177 91.0988765,75.4529699 91.9156145,75.0467564 L94.1091361,73.9569503 C95.7359148,73.1485976 97.7082068,73.8131404 98.5185769,75.4427292 L106.911139,92.3183715 Z M145.666184,69.4633021 C147.136355,70.5836389 147.43041,72.7559676 146.352205,74.2497124 L136.768269,88.5071045 C134.938588,91.0530674 131.997919,92.5806452 128.926668,92.5806452 L112.971302,92.5806452 L110.221553,92.5806452 L100.935484,73.2347218 L103.298387,71.0741611 L103.346851,71.1150097 C104.801448,69.9180677 106.235679,69.0253965 108.362466,68.5132619 C112.192816,67.5908313 115.976336,68.7293859 118.504019,71.0926052 C119.14615,71.6764794 119.552165,72.212942 120.366373,72.212942 C128.572712,72.212942 121.254422,72.212942 128.926668,72.212942 C130.723677,72.212942 132.193957,73.7405198 132.193957,75.6075592 C132.193957,77.4745987 130.723677,79.0021764 128.926668,79.0021764 C127.002454,79.0021764 124.580086,79.0021764 122.392092,79.0021764 C121.477142,79.0021764 120.758448,79.748879 120.758448,80.699485 C120.758448,81.650091 121.477142,82.3967936 122.392092,82.3967936 L130.004982,82.3967936 C130.625767,82.3967936 131.801991,81.9894395 132.422776,81.3105161 L141.353363,69.9046024 C142.464132,68.648594 144.326487,68.444917 145.666184,69.4633021 Z" id="path-2"></path>
        <filter x="-33.9%" y="-19.6%" width="167.9%" height="167.9%" filterUnits="objectBoundingBox" id="filter-3">
            <feOffset dx="0" dy="8" in="SourceAlpha" result="shadowOffsetOuter1"></feOffset>
            <feGaussianBlur stdDeviation="5" in="shadowOffsetOuter1" result="shadowBlurOuter1"></feGaussianBlur>
            <feColorMatrix values="0 0 0 0 0   0 0 0 0 0   0 0 0 0 0  0 0 0 0.1 0" type="matrix" in="shadowBlurOuter1"></feColorMatrix>
        </filter>
    </defs>
    <g id="Page-1" stroke="none" stroke-width="1" fill="none" fill-rule="evenodd">
        <g id="Home-Page-Design-for-Dokan" transform="translate(-1071.000000, -1272.000000)" fill-rule="nonzero">
            <g id="Reasons-to-Use-Dokan" transform="translate(410.000000, 953.000000)">
                <g id="3" transform="translate(580.000000, 279.000000)">
                    <g id="Combined-Shape">
                        <use fill="black" fill-opacity="1" filter="url(#filter-3)" xlink:href="#path-2"></use>
                        <use fill="url(#linearGradient-1)" xlink:href="#path-2"></use>
                    </g>
                </g>
            </g>
        </g>
    </g>
</svg>