<svg height="488pt" viewBox="-44 0 488 488" width="488pt" xmlns="http://www.w3.org/2000/svg"><path d="m304 24v48h-32v-32h-144v32h-32v-48c0-8.800781 7.199219-16 16-16h176c8.800781 0 16 7.199219 16 16zm0 0" fill="#838f9b"/><path d="m376 72v32c0 35.359375-28.640625 64-64 64h-32v-16c0-4.398438-1.761719-8.398438-4.71875-11.28125-2.882812-2.957031-6.882812-4.71875-11.28125-4.71875-8.800781 0-16 7.199219-16 16v16h-96v-16c0-4.398438-1.761719-8.398438-4.71875-11.28125-2.882812-2.957031-6.882812-4.71875-11.28125-4.71875-8.800781 0-16 7.199219-16 16v16h-32c-35.359375 0-64-28.640625-64-64v-32zm0 0" fill="#b27946"/><path d="m136 308.238281c0 1.28125.078125 2.480469.160156 3.761719h-80.160156c-17.679688 0-32-14.320312-32-32v-176c0 35.359375 28.640625 64 64 64h32v16c0 8.800781 7.199219 16 16 16s16-7.199219 16-16v-16h96v16c0 8.800781 7.199219 16 16 16s16-7.199219 16-16v-16h32c35.359375 0 64-28.640625 64-64v176c0 17.679688-14.320312 32-32 32h-80.160156c.082031-1.28125.160156-2.480469.160156-3.761719v-36.238281h8c4.398438 0 8-3.601562 8-8v-16c0-4.398438-3.601562-8-8-8h-144c-4.398438 0-8 3.601562-8 8v16c0 4.398438 3.601562 8 8 8h8zm0 0" fill="#dfb28b"/><path d="m280 168v16c0 8.800781-7.199219 16-16 16s-16-7.199219-16-16v-32c0-8.800781 7.199219-16 16-16 4.398438 0 8.398438 1.761719 11.28125 4.71875 2.957031 2.882812 4.71875 6.882812 4.71875 11.28125zm0 0" fill="#fcd770"/><path d="m152 168v16c0 8.800781-7.199219 16-16 16s-16-7.199219-16-16v-32c0-8.800781 7.199219-16 16-16 4.398438 0 8.398438 1.761719 11.28125 4.71875 2.957031 2.882812 4.71875 6.882812 4.71875 11.28125zm0 0" fill="#fcd770"/><path d="m232 360c0 4.878906 2.800781 9.359375 7.121094 11.601562 15.277344 7.597657 24.878906 23.117188 24.878906 40.160157v36.238281h-128v-36.238281c0-8.5625 2.398438-16.640625 6.71875-23.601563 4.320312-6.960937 10.5625-12.800781 18.160156-16.558594 4.320313-2.242187 7.121094-6.722656 7.121094-11.601562 0-2.398438-.71875-4.800781-1.921875-6.800781l1.921875-1.199219h64l1.921875 1.199219c-1.203125 2-1.921875 4.402343-1.921875 6.800781zm0 0" fill="#e6e9ed"/><path d="m264 272v36.238281c0 1.28125-.078125 2.480469-.160156 3.761719-.558594 7.121094-2.878906 13.921875-6.558594 19.839844-4.320312 6.960937-10.5625 12.800781-18.160156 16.558594-2.160156 1.121093-3.921875 2.800781-5.199219 4.800781l-1.921875-1.199219h-64l-1.921875 1.199219c-1.277344-2-3.039063-3.679688-5.199219-4.800781-14.160156-7.039063-23.4375-20.878907-24.71875-36.398438-.082031-1.28125-.160156-2.480469-.160156-3.761719v-36.238281zm0 0" fill="#e6e9ed"/><path d="m272 448c4.398438 0 8 3.601562 8 8v16c0 4.398438-3.601562 8-8 8h-144c-4.398438 0-8-3.601562-8-8v-16c0-4.398438 3.601562-8 8-8zm0 0" fill="#ff826e"/><path d="m280 248v16c0 4.398438-3.601562 8-8 8h-144c-4.398438 0-8-3.601562-8-8v-16c0-4.398438 3.601562-8 8-8h144c4.398438 0 8 3.601562 8 8zm0 0" fill="#ff826e"/><path d="m192 408h16v16h-16zm0 0"/><path d="m384 104v-40h-72v-40c0-13.230469-10.769531-24-24-24h-176c-13.230469 0-24 10.769531-24 24v40h-72v216c0 22.054688 17.945312 40 40 40h73.425781c3.445313 15.273438 13.390625 28.359375 27.832031 35.574219 1.695313.851562 2.742188 2.546875 2.742188 4.425781s-1.046875 3.574219-2.734375 4.425781c-18.058594 9.023438-29.265625 27.160157-29.265625 47.351563v28.222656c-8.824219 0-16 7.175781-16 16v16c0 8.824219 7.175781 16 16 16h144c8.824219 0 16-7.175781 16-16v-16c0-8.824219-7.175781-16-16-16v-28.222656c0-20.183594-11.207031-38.328125-29.257812-47.351563-1.695313-.851562-2.742188-2.546875-2.742188-4.425781s1.046875-3.574219 2.734375-4.425781c14.441406-7.214844 24.394531-20.308594 27.839844-35.574219h73.425781c22.054688 0 40-17.945312 40-40zm-16 0c0 30.878906-25.128906 56-56 56h-24v-8c0-13.230469-10.769531-24-24-24s-24 10.769531-24 24v8h-80v-8c0-13.230469-10.769531-24-24-24s-24 10.769531-24 24v8h-24c-30.871094 0-56-25.121094-56-56v-24h336zm-96 48v32c0 4.40625-3.585938 8-8 8s-8-3.59375-8-8v-32c0-4.40625 3.585938-8 8-8s8 3.59375 8 8zm-128 0v32c0 4.40625-3.585938 8-8 8s-8-3.59375-8-8v-32c0-4.40625 3.585938-8 8-8s8 3.59375 8 8zm120-88h-128v-16h128zm-160-40c0-4.40625 3.585938-8 8-8h176c4.414062 0 8 3.59375 8 8v40h-16v-32h-160v32h-16zm168 448h-144v-16h144zm-16-60.222656v28.222656h-112v-28.222656c0-14.089844 7.832031-26.746094 20.433594-33.042969 7.125-3.574219 11.566406-10.757813 11.566406-18.734375h16v32h16v-32h16c0 7.976562 4.441406 15.160156 11.574219 18.734375 12.59375 6.296875 20.425781 18.953125 20.425781 33.042969zm-20.433594-70.511719c-1.46875.734375-2.742187 1.71875-3.964844 2.734375h-63.203124c-1.222657-1.015625-2.503907-2-3.972657-2.734375-12.59375-6.296875-20.425781-18.953125-20.425781-33.042969v-28.222656h80v-16h-96v-16h144v16h-32v16h16v28.222656c0 14.089844-7.832031 26.746094-20.433594 33.042969zm108.433594-37.265625h-72v-24c8.824219 0 16-7.175781 16-16v-16c0-8.824219-7.175781-16-16-16h-144c-8.824219 0-16 7.175781-16 16v16c0 8.824219 7.175781 16 16 16v24h-72c-13.230469 0-24-10.769531-24-24v-130.847656c13.207031 16.351562 33.390625 26.847656 56 26.847656h24v8c0 13.230469 10.769531 24 24 24s24-10.769531 24-24v-8h80v8c0 13.230469 10.769531 24 24 24s24-10.769531 24-24v-8h24c22.609375 0 42.792969-10.496094 56-26.847656v130.847656c0 13.230469-10.769531 24-24 24zm0 0"/><path d="m64 400h16v16h-16zm0 0"/><path d="m96 400h16v16h-16zm0 0"/><path d="m32 400h16v16h-16zm0 0"/><path d="m0 400h16v16h-16zm0 0"/><path d="m352 400h16v16h-16zm0 0"/><path d="m384 400h16v16h-16zm0 0"/><path d="m320 400h16v16h-16zm0 0"/><path d="m288 400h16v16h-16zm0 0"/></svg>