<svg
    width="21px"
    height="26px"
    viewBox="0 0 21 26"
    version="1.1"
    xmlns="http://www.w3.org/2000/svg"
    xmlns:xlink="http://www.w3.org/1999/xlink"
>
    <g id="Page-1" stroke="none" stroke-width="1" fill="none" fill-rule="evenodd">
    <g
        id="All-Product-Page-Design-U4"
        transform="translate(-1167.000000, -573.000000)"
        fill="#F1634C"
        fill-rule="nonzero"
    >
        <g id="Group-100" transform="translate(1145.000000, 558.000000)">
        <g id="Group-59" transform="translate(5.000000, 0.000000)">
            <g id="Icon" transform="translate(16.923077, 15.230769)">
            <g id="Group-140" transform="translate(0.095552, 0.024490)">
                <path
                d="M1.62469508,1.2524332 C1.62469508,1.2524332 14.7161319,0.321663967 14.7161319,11.2139717 C14.7161319,22.1062794 11.255682,24.2908947 8.2223003,24.9793563 C8.2223003,24.9793563 20.8387735,27.9062794 20.8387735,12.5908947 C20.8387735,-2.72448988 4.7498765,-0.520643726 1.62469508,1.2524332 Z"
                id="Shape"
                ></path>
                <path
                d="M12.2774527,19.771664 C12.2774527,19.771664 11.0162045,24.0024332 7.19653833,24.5370486 C3.37687215,25.071664 2.66642222,23.0755101 0.0122132217,23.2139717 C-0.0489479062,22.6656331 0.121305799,22.1166306 0.484652303,21.6905379 C0.847998807,21.2644452 1.37390594,20.997067 1.94399842,20.948587 C4.09530466,20.6678178 8.1265093,21.2139717 10.8046661,19.5832024 C10.8046661,19.5832024 12.4011827,18.7832024 12.7005296,18.3947409 L12.2774527,19.771664 Z"
                id="Shape"
                ></path>
                <path
                d="M1.42912178,2.01397166 L1.42912178,7.25627935 L1.42912178,7.25627935 L1.42912178,20.3024332 C1.56061183,20.2698069 1.69385344,20.2441276 1.82825096,20.2255101 C2.58263051,20.1489639 3.34074932,20.1117302 4.09929595,20.1139717 C4.8975543,20.1139717 5.75169073,20.0832024 6.61380974,20.0062794 L6.61380974,13.8524332 C6.61380974,11.8062794 6.47810582,9.71781781 6.61380974,7.67551012 C6.75863897,6.44213435 7.60083735,5.38768186 8.8010376,4.93704858 C9.75910765,4.59482849 10.8230789,4.66196834 11.7266544,5.12166397 C8.72670286,3.05248779 5.11797997,1.96341134 1.42912178,2.01397166 Z"
                id="Shape"
                ></path>
            </g>
            </g>
        </g>
        </g>
    </g>
    </g>
</svg>