<svg
    width="26px"
    height="21px"
    viewBox="0 0 26 21"
    version="1.1"
    xmlns="http://www.w3.org/2000/svg"
    xmlns:xlink="http://www.w3.org/1999/xlink"
>
    <g id="Page-1" stroke="none" stroke-width="1" fill="none" fill-rule="evenodd">
    <g
        id="All-Product-Page-Design-U4"
        transform="translate(-401.000000, -1316.000000)"
        fill-rule="nonzero"
    >
        <g id="Group-99" transform="translate(386.000000, 1296.000000)">
        <g id="Group-57">
            <g id="Icon-2-Copy-2" transform="translate(15.230769, 20.769231)">
            <g id="Icon" transform="translate(-0.000000, 0.000000)">
                <g id="Group-140" transform="translate(0.178857, 0.109093)">
                <path
                    d="M15.0495354,10.094011 L15.0495354,13.1285302 C15.0495354,14.8726273 13.6513658,16.2864973 11.9266362,16.2864973 C10.2019065,16.2864973 8.80373692,14.8726273 8.80373692,13.1285302 L8.80373692,10.094011 L5.36286973,10.094011 L5.36286973,13.1285302 C5.31341529,15.5332931 6.55380385,17.7770997 8.60541634,18.9941497 C10.6570288,20.2111998 13.1990825,20.2111998 15.250695,18.9941497 C17.3023075,17.7770997 18.5426961,15.5332931 18.4932416,13.1285302 L18.4932416,10.094011 L15.0495354,10.094011 Z"
                    id="Shape"
                    fill="#23B89A"
                ></path>
                <polygon
                    id="Shape"
                    fill="#94A4A4"
                    points="8.80089792 0.0114835165 -2.91322522e-13 0.0114835165 1.03339576 3.49098901 8.80089792 3.49098901"
                ></polygon>
                <path
                    d="M20.5770671,0.0114835165 L15.0495354,0.0114835165 L15.0495354,3.49098901 L20.5770671,3.49098901 C21.0474479,3.49098901 21.4287669,3.87658992 21.4287669,4.35225275 C21.4287669,4.82791557 21.0474479,5.21351648 20.5770671,5.21351648 L15.0495354,5.21351648 L15.0495354,8.69302198 L20.5770671,8.69302198 C22.9509223,8.69302198 24.8753121,6.74702272 24.8753121,4.34651099 C24.8753121,1.94599925 22.9509223,-2.47801779e-13 20.5770671,-2.47801779e-13 L20.5770671,0.0114835165 Z"
                    id="Shape"
                    fill="#94A4A4"
                ></path>
                <polygon
                    id="Shape"
                    fill="#94A4A4"
                    points="8.80089792 5.225 1.72327259 5.225 2.75666835 8.70163462 8.80089792 8.70163462"
                ></polygon>
                </g>
            </g>
            </g>
        </g>
        </g>
    </g>
    </g>
</svg>