<svg xmlns="http://www.w3.org/2000/svg" xmlns:xlink="http://www.w3.org/1999/xlink" viewBox="0 0 66.94 66.94"><defs><style>.cls-1{fill:url(#linear-gradient);}.cls-2{fill:#fff;}</style><linearGradient id="linear-gradient" x1="17.14" y1="13.05" x2="54.47" y2="59.72" gradientUnits="userSpaceOnUse"><stop offset="0" stop-color="#c444fb"/><stop offset="1" stop-color="#5b56d7"/></linearGradient></defs><title>Project Manager</title><g id="Layer_2" data-name="Layer 2"><g id="Layer_1-2" data-name="Layer 1"><circle class="cls-1" cx="33.47" cy="33.47" r="33.47"/><path class="cls-2" d="M25.58,42.22a2.77,2.77,0,0,1,.28,4h0a2.77,2.77,0,0,1-3.84.25,18.08,18.08,0,0,1,5.5-30.75l3.39,4.75L32.67,23l-3.6,4.76L25.73,23a12.53,12.53,0,0,0-.15,19.22Z"/><path class="cls-2" d="M45,46.92a2.76,2.76,0,1,1-3.57-4.22,12.53,12.53,0,0,0-.09-19.12l-4.49,6.29-.72,1V48.38a2.85,2.85,0,0,1-2.82,2.86h-.06a2.85,2.85,0,0,1-2.82-2.86V33.72l0-3.08V29.11l9.19-12.87A18.06,18.06,0,0,1,45,46.92Z"/></g></g></svg>