<svg xmlns="http://www.w3.org/2000/svg" xmlns:xlink="http://www.w3.org/1999/xlink" width="693" height="566"><style><![CDATA[.B{opacity:.313}.C{fill:#fff}.D{fill:#1b417c}.E{fill:#000}.F{fill:#7c86c9}.G{fill:#8585e0}.H{fill:#c2baef}.I{opacity:.558}.J{fill-rule:nonzero}]]></style><defs><path id="A" d="M0 .053h42.666V47.43H0z"/><path id="B" d="M.226.553H42.9V48H.226z"/><linearGradient x1="-0.153318598%" y1="100%" x2="66.7797879%" y2="28.3050495%" id="C"><stop stop-color="#fff" stop-opacity=".5" offset="0%"/><stop stop-color="#edf7f5" offset="100%"/></linearGradient><path id="D" d="M.233.246h4.643v4.67H.233z"/><path id="E" d="M.466.48h4.643v4.67H.466z"/><path id="F" d="M.233.246h4.643v4.67H.233z"/><path id="G" d="M.466.48h4.643v4.67H.466z"/><path id="H" d="M.233.246h4.643v4.67H.233z"/><path id="I" d="M.466.48h4.643v4.67H.466z"/><path id="J" d="M.233.246h4.643v4.67H.233z"/><path id="K" d="M.466.48h4.643v4.67H.466z"/><linearGradient x1="30.057132%" y1="46.1710335%" x2="31.8984291%" y2="71.8596221%" id="L"><stop stop-color="#c2d4ef" offset="0%"/><stop stop-color="#e7e5ed" stop-opacity="0" offset="100%"/></linearGradient><linearGradient x1="44.6732755%" y1="41.9983467%" x2="45.1650846%" y2="95.6815477%" id="M"><stop stop-color="#c2d4ef" offset="0%"/><stop stop-color="#e7e5ed" stop-opacity="0" offset="100%"/></linearGradient><linearGradient x1="49.2317846%" y1="41.9983467%" x2="49.3027128%" y2="95.6815477%" id="N"><stop stop-color="#c2d4ef" offset="0%"/><stop stop-color="#e7e5ed" stop-opacity="0" offset="100%"/></linearGradient><linearGradient x1="44.6322219%" y1="41.9983467%" x2="45.1278214%" y2="95.6815477%" id="O"><stop stop-color="#c2d4ef" offset="0%"/><stop stop-color="#e7e5ed" stop-opacity="0" offset="100%"/></linearGradient><linearGradient x1="49.2035955%" y1="41.9983467%" x2="49.2771264%" y2="95.6815477%" id="P"><stop stop-color="#c2d4ef" offset="0%"/><stop stop-color="#e7e5ed" stop-opacity="0" offset="100%"/></linearGradient><path id="Q" d="M0 .36h96.002v182.645H0z"/><linearGradient x1="50%" y1="0%" x2="50%" y2="100%" id="R"><stop stop-color="#cedceb" offset="0%"/><stop stop-color="#cddceb" offset="100%"/></linearGradient><path id="S" d="M.11 0H15.47v46.78H.11z"/><linearGradient x1="100%" y1="0%" x2="100%" y2="211.254883%" id="T"><stop stop-color="#ffa1eb" offset="0%"/><stop stop-color="#fd575b" offset="100%"/></linearGradient><linearGradient x1="50%" y1="0%" x2="50%" y2="100%" id="U"><stop stop-color="#d7cbff" offset="0%"/><stop stop-color="#5f58ff" offset="100%"/></linearGradient><linearGradient x1="96.3961167%" y1="-51.4238918%" x2="50%" y2="80.096913%" id="V"><stop stop-color="#34426b" offset="0%"/><stop stop-color="#34406b" offset="100%"/></linearGradient><linearGradient x1="67.5493942%" y1="13.3819886%" x2="47.0454254%" y2="79.6519531%" id="W"><stop stop-color="#ffd8ba" offset="0%"/><stop stop-color="#ffaf84" offset="100%"/></linearGradient><linearGradient x1="50%" y1="-15.5528522%" x2="50%" y2="100%" id="X"><stop stop-color="#bb6849" offset="0%"/><stop stop-color="#862e46" offset="100%"/></linearGradient><linearGradient x1="78.0338906%" y1="13.3819886%" x2="45.2802803%" y2="79.6519531%" id="Y"><stop stop-color="#ffd8ba" offset="0%"/><stop stop-color="#ffaf84" offset="100%"/></linearGradient><path id="Z" d="M.202.446h49.336v63.84H.202z"/><linearGradient x1="96.3961167%" y1="-16.0919869%" x2="50%" y2="69.6123886%" id="a"><stop stop-color="#6474a4" offset="0%"/><stop stop-color="#34406b" offset="100%"/></linearGradient><linearGradient x1="87.7496938%" y1="42.0153547%" x2="43.6445506%" y2="56.4656796%" id="b"><stop stop-color="#ffd8ba" offset="0%"/><stop stop-color="#ffaf84" offset="100%"/></linearGradient><linearGradient x1="15.4400852%" y1="90.0308496%" x2="70.76987%" y2="19.9899171%" id="c"><stop stop-color="#e9f2ff" offset="0%"/><stop stop-color="#cee0ff" offset="100%"/></linearGradient><path id="d" d="M.116.552h29.886v30.58H.116z"/><linearGradient x1="50%" y1="-38.051298%" x2="50%" y2="100%" id="e"><stop stop-color="#e2eafc" offset="0%"/><stop stop-color="#b1c3e7" offset="100%"/></linearGradient><linearGradient x1="18.1028192%" y1="15.4457895%" x2="73.8290976%" y2="85.9859252%" id="f"><stop stop-color="#fcdbde" offset="0%"/><stop stop-color="#ea66bf" offset="100%"/></linearGradient><ellipse id="g" cx="299.707" cy="30.796" rx="30.739" ry="30.796"/><filter x="-96.8%" y="-73.9%" width="293.6%" height="293.2%" id="h"><feOffset dy="14" in="SourceAlpha"/><feGaussianBlur stdDeviation="17.5"/><feColorMatrix values="0 0 0 0 0.921568627 0 0 0 0 0.42745098 0 0 0 0 0.756862745 0 0 0 0.243771853 0"/></filter><linearGradient x1="18.1028192%" y1="15.4457895%" x2="74.6521273%" y2="86.419822%" id="i"><stop stop-color="#f5dbfc" offset="0%"/><stop stop-color="#8c5bf9" offset="100%"/></linearGradient><ellipse id="j" cx="452.25" cy="43.499" rx="23.439" ry="23.482"/><filter x="-72.5%" y="-55.4%" width="245.1%" height="244.8%" id="k"><feOffset dy="8" in="SourceAlpha"/><feGaussianBlur stdDeviation="10"/><feColorMatrix values="0 0 0 0 0.564705882 0 0 0 0 0.376470588 0 0 0 0 0.976470588 0 0 0 0.222546984 0"/></filter><path d="M73.317 5.174c0 2.86-16.412 5.175-36.658 5.175S0 8.033 0 5.174 16.412 0 36.658 0" id="l"/><path id="m" d="M0 .057h24.024v22.647H0z"/><path id="n" d="M.474.25h31.17v33.3H.474z"/><linearGradient x1="72.6445804%" y1="13.3819886%" x2="46.1876119%" y2="79.6519531%" id="o"><stop stop-color="#ffd8ba" offset="0%"/><stop stop-color="#ffaf84" offset="100%"/></linearGradient><linearGradient x1="87.7496938%" y1="34.3712605%" x2="43.6445506%" y2="62.6555931%" id="p"><stop stop-color="#ffd8ba" offset="0%"/><stop stop-color="#ffaf84" offset="100%"/></linearGradient><linearGradient x1="50%" y1="0%" x2="37.8245687%" y2="94.609262%" id="q"><stop stop-color="#abdcff" offset="0%"/><stop stop-color="#0396ff" offset="100%"/></linearGradient><linearGradient x1="87.1209792%" y1="-118.495506%" x2="50%" y2="100%" id="r"><stop stop-color="#34426b" offset="0%"/><stop stop-color="#34406b" offset="100%"/></linearGradient><linearGradient x1="96.3961167%" y1="-25.1787603%" x2="50%" y2="72.3088325%" id="s"><stop stop-color="#6474a4" offset="0%"/><stop stop-color="#34406b" offset="100%"/></linearGradient><linearGradient x1="50%" y1="3.09790462%" x2="50%" y2="100%" id="t"><stop stop-color="#6e6e6e" offset="0%"/><stop stop-color="#4c4c4c" offset="100%"/></linearGradient><linearGradient x1="26.2843731%" y1="144.212041%" x2="65.1652735%" y2="-7.50595358%" id="u"><stop stop-color="#e2eafc" offset="0%"/><stop stop-color="#b1c3e7" offset="100%"/></linearGradient><path id="v" d="M0 .06h15.414v65.846H0z"/><linearGradient x1="55.9183718%" y1="-12.2177764%" x2="50%" y2="145.90132%" id="w"><stop stop-color="#abdcff" offset="0%"/><stop stop-color="#0396ff" offset="100%"/></linearGradient><filter x="-12.0%" y="-11.6%" width="124.4%" height="123.3%" id="x"><feOffset dy="2" in="SourceAlpha"/><feGaussianBlur stdDeviation="4"/><feColorMatrix values="0 0 0 0 0 0 0 0 0 0 0 0 0 0 0 0 0 0 0.07 0" result="C"/><feMerge><feMergeNode in="C"/><feMergeNode in="SourceGraphic"/></feMerge></filter><path id="y" d="M.186.13h59.746v55.825H.186z"/><path d="M213.295 144.39v.012c0 2.38-2.066 4.31-4.613 4.316l-191.37.368c-2.554.006-4.632-1.924-4.638-4.3l-.257-118.463c-.006-2.38 2.06-4.322 4.613-4.328l191.37-.368c2.554-.006 4.632 1.924 4.638 4.3l.012 4.615.245 113.85z" id="z"/><filter x="-6.5%" y="-8.6%" width="112.9%" height="120.4%" id="AA"><feOffset dy="2" in="SourceAlpha"/><feGaussianBlur stdDeviation="4"/><feColorMatrix values="0 0 0 0 0 0 0 0 0 0 0 0 0 0 0 0 0 0 0.07 0"/></filter><path d="M79.523 110.176h-58.4c-1.075 0-1.946-.814-1.946-1.818v-13.64c0-1.004.87-1.818 1.946-1.818h58.4c1.075 0 1.946.815 1.946 1.818v13.64c0 1.004-.87 1.818-1.946 1.818" id="AB"/><filter x="-20.9%" y="-63.7%" width="141.7%" height="250.5%" id="AC"><feOffset dy="2" in="SourceAlpha"/><feGaussianBlur stdDeviation="4"/><feColorMatrix values="0 0 0 0 0 0 0 0 0 0 0 0 0 0 0 0 0 0 0.07 0"/></filter><path d="M211.6 61.742c-7.862 0-14.235-5.955-14.235-13.3s6.373-13.3 14.235-13.3 14.235 5.955 14.235 13.3-6.372 13.3-14.235 13.3" id="AD"/><filter x="-45.7%" y="-41.4%" width="191.3%" height="197.7%" id="AE"><feOffset dy="2" in="SourceAlpha"/><feGaussianBlur stdDeviation="4"/><feColorMatrix values="0 0 0 0 0 0 0 0 0 0 0 0 0 0 0 0 0 0 0.07 0"/></filter><path d="M72.8 124.913H1.946c-1.074 0-1.946-.814-1.946-1.818v-12.772c0-1.005.87-1.82 1.946-1.82H72.8c1.075 0 1.946.814 1.946 1.82v12.772c0 1.004-.87 1.818-1.946 1.818" id="AF"/><filter x="-17.4%" y="-48.8%" width="134.8%" height="258.4%" id="AG"><feOffset dy="5" in="SourceAlpha"/><feGaussianBlur stdDeviation="3.5"/><feColorMatrix values="0 0 0 0 0.856658153 0 0 0 0 0.774127999 0 0 0 0 1 0 0 0 0.352977808 0"/></filter><linearGradient x1="50%" y1="0%" x2="50%" y2="125.959956%" id="AH"><stop stop-color="#f0d3ff" offset="0%"/><stop stop-color="#816dff" offset="100%"/></linearGradient><linearGradient x1="50%" y1="-9.63264576%" x2="50%" y2="100%" id="AI"><stop stop-color="#c7e1f9" offset="0%"/><stop stop-color="#9accfa" offset="100%"/></linearGradient><linearGradient x1="50%" y1="-17.9191697%" x2="50%" y2="100%" id="AJ"><stop stop-color="#ffd1ee" offset="0%"/><stop stop-color="#ff6baf" offset="100%"/></linearGradient><linearGradient x1="16.8815589%" y1="15.1031351%" x2="73.8132352%" y2="82.3794205%" id="AK"><stop stop-color="#9bdaef" offset="0%"/><stop stop-color="#93a8ff" offset="100%"/></linearGradient><ellipse id="AL" cx="510.655" cy="138.195" rx="22.67" ry="22.712"/><filter x="-121.3%" y="-103.5%" width="342.6%" height="342.2%" id="AM"><feOffset dy="8" in="SourceAlpha"/><feGaussianBlur stdDeviation="17"/><feColorMatrix values="0 0 0 0 0.222663462 0 0 0 0 0.302733895 0 0 0 0 0.634454257 0 0 0 0.242105551 0"/></filter><linearGradient x1="50%" y1="100%" x2="50%" y2="3.061617e-15%" id="AN"><stop stop-color="#bbe9ff" offset="0%"/><stop stop-color="#fff" offset="100%"/></linearGradient><linearGradient x1="35.3080324%" y1="44.9011007%" x2="50%" y2="57.220197%" id="AO"><stop stop-color="#737895" offset="0%"/><stop stop-color="#3f435c" offset="100%"/></linearGradient><linearGradient x1="35.3080324%" y1="47.1806875%" x2="50%" y2="53.9922326%" id="AP"><stop stop-color="#737895" offset="0%"/><stop stop-color="#3f435c" offset="100%"/></linearGradient><linearGradient x1="50%" y1="4.66943642%" x2="50%" y2="100%" id="AQ"><stop stop-color="#687e9e" offset="0%"/><stop stop-color="#293549" offset="100%"/></linearGradient><linearGradient x1="71.8776618%" y1="13.3819886%" x2="46.3167285%" y2="79.6519531%" id="AR"><stop stop-color="#ffd8ba" offset="0%"/><stop stop-color="#ffaf84" offset="100%"/></linearGradient><linearGradient x1="87.7496938%" y1="13.5431891%" x2="43.6445506%" y2="79.5214188%" id="AS"><stop stop-color="#ffd8ba" offset="0%"/><stop stop-color="#ffaf84" offset="100%"/></linearGradient><linearGradient x1="50.5660899%" y1="120.90388%" x2="48.7654971%" y2="15.6386968%" id="AT"><stop stop-color="#ffba67" offset="0%"/><stop stop-color="#ff635e" offset="100%"/></linearGradient><linearGradient x1="53.4909203%" y1="13.3819886%" x2="49.4122769%" y2="79.6519531%" id="AU"><stop stop-color="#ffd8ba" offset="0%"/><stop stop-color="#ffaf84" offset="100%"/></linearGradient><linearGradient x1="53.4368991%" y1="120.90388%" x2="42.5049675%" y2="15.6386968%" id="AV"><stop stop-color="#ffba67" offset="0%"/><stop stop-color="#ff635e" offset="100%"/></linearGradient><linearGradient x1="50%" y1="100%" x2="50%" y2="3.061617e-15%" id="AW"><stop stop-color="#fdc2c8" offset="0%"/><stop stop-color="#fff" offset="100%"/></linearGradient><linearGradient x1="50%" y1="85.7615635%" x2="50%" y2="3.061617e-15%" id="AX"><stop stop-color="#f3d8fc" offset="0%"/><stop stop-color="#fff" offset="100%"/></linearGradient><linearGradient x1="50%" y1="0%" x2="50%" y2="100%" id="AY"><stop stop-color="#c2e998" offset="0%"/><stop stop-color="#02cc87" offset="100%"/></linearGradient><linearGradient x1="50%" y1="0%" x2="50%" y2="100%" id="AZ"><stop stop-color="#d17aff" offset="0%"/><stop stop-color="#816dff" offset="100%"/></linearGradient><linearGradient x1="66.9679766%" y1="-179.374222%" x2="50%" y2="95.8219533%" id="Aa"><stop stop-color="#ffd1ee" offset="0%"/><stop stop-color="#ff6baf" offset="100%"/></linearGradient><circle id="Ab" cx="14" cy="14" r="14"/><filter x="-132.1%" y="-92.9%" width="364.3%" height="364.3%" id="Ac"><feOffset dy="11" in="SourceAlpha"/><feGaussianBlur stdDeviation="10.5"/><feColorMatrix values="0 0 0 0 0.0237422874 0 0 0 0 0.358044611 0 0 0 0 0.162109551 0 0 0 0.198098776 0"/></filter><path id="Ad" d="M4.195 4.232a2.31 2.31 0 0 1-3.283 0C.006 3.32.006 1.842.913.93a2.31 2.31 0 0 1 3.283 0c.907.912.907 2.4 0 3.302"/><path id="Ae" d="M29.152 13.17c-.896.9-2.348.9-3.244 0a2.32 2.32 0 0 1 0-3.263c.896-.9 2.348-.9 3.244 0a2.32 2.32 0 0 1 0 3.263"/><path id="Af" d="M4.428 4.467a2.31 2.31 0 0 1-3.283 0c-.907-.912-.907-2.4 0-3.302a2.31 2.31 0 0 1 3.283 0c.907.912.907 2.4 0 3.302"/><path id="Ag" d="M12.328 30.093c-.896.9-2.35.9-3.245 0a2.32 2.32 0 0 1 0-3.263c.896-.9 2.35-.9 3.245 0a2.32 2.32 0 0 1 0 3.263"/><path id="Ah" d="M9.084 13.17a2.32 2.32 0 0 1 0-3.263c.896-.9 2.348-.9 3.244 0a2.32 2.32 0 0 1 0 3.263c-.896.9-2.348.9-3.244 0"/><path id="Ai" d="M82.467 56.645c.562.93.89 2.005.89 3.155v17.87c0 3.496-2.973 6.33-6.638 6.33H9.386a6.83 6.83 0 0 1-.658-.032c1.146 1.897 3.288 3.177 5.75 3.177h67.33c3.665 0 6.637-2.835 6.637-6.33v-17.87c0-3.285-2.62-5.983-5.978-6.3"/><path id="Aj" d="M72.773 80.6H18c-3.192 0-5.78-2.46-5.78-5.496v-9.16c0-3.035 2.588-5.496 5.78-5.496h54.774c3.192 0 5.78 2.46 5.78 5.496v9.16c0 3.035-2.588 5.496-5.78 5.496"/><path id="Ak" d="M50.503 66.993c.617.847.992 1.88.992 3.006 0 2.836-2.307 5.135-5.15 5.135-.76 0-1.473-.174-2.12-.467.935 1.285 2.445 2.13 4.16 2.13 2.844 0 5.15-2.3 5.15-5.135 0-2.08-1.246-3.86-3.03-4.67"/><path id="Al" d="M73.052 69.282l-52.192.1c-.277.001-.502-.21-.503-.468l-.001-.14c-.001-.26.224-.47.5-.47l52.192-.1c.277-.001.503.21.503.468l.001.14c.001.26-.223.47-.5.47"/><path id="Am" d="M160.956 139.874l-33.506.064c-.277.001-.502-.208-.503-.468l-.001-.14c-.001-.26.224-.47.5-.47l33.506-.065c.277-.001.503.2.503.468v.14c.001.26-.224.47-.5.47"/></defs><g fill="none" fill-rule="evenodd"><g opacity=".325" transform="translate(611 286)"><path d="M50.147 1L4 53.488C4.905 55.4 5.963 57.253 7.172 59L56 3.462A38.04 38.04 0 0 0 50.147 1" class="F"/><mask id="An" class="C"><use xlink:href="#A"/></mask><g class="F"><path d="M34.958.142L0 39.795a37.55 37.55 0 0 0 1.213 7.633L42.666.41c-2.6-.357-5.17-.444-7.708-.267" mask="url(#An)"/><path d="M1.666 26.33L1 29 26 1C14.62 4.9 5.265 14.022 1.666 26.33"/></g><g transform="translate(34 28)"><mask id="Ao" class="C"><use xlink:href="#B"/></mask><path d="M41.68.553L.226 47.644c2.59.36 5.17.445 7.707.267L42.9 8.198A37.59 37.59 0 0 0 41.679.553" mask="url(#Ao)" class="F"/></g><g class="F"><path d="M61.464 9L11 66.002c1.396 1.442 2.9 2.78 4.535 3.998L66 12.998A38.15 38.15 0 0 0 61.464 9M51 75c11.38-3.9 20.734-13.022 24.335-25.33A38.26 38.26 0 0 0 76 47L51 75z"/><path d="M69.827 17L21 72.537c1.85.972 3.807 1.793 5.852 2.463L73 22.51A38.4 38.4 0 0 0 69.827 17"/></g></g><rect fill="url(#C)" x="128" width="513" height="566" rx="10"/><g transform="matrix(.694658 -.71934 .71934 .694658 624.97839 524.967158)"><g transform="translate(25.965 .899)"><g transform="translate(16.824)"><mask id="Ap" class="C"><use xlink:href="#D"/></mask><use xlink:href="#Ad" mask="url(#Ap)" class="D"/></g><g transform="translate(33.647 16.923)"><mask id="Aq" class="C"><use xlink:href="#E"/></mask><use xlink:href="#Af" mask="url(#Aq)" class="D"/></g><g transform="translate(16.824)"><mask id="Ar" class="C"><use xlink:href="#F"/></mask><use xlink:href="#Ad" mask="url(#Ar)" class="D"/></g><use xlink:href="#Ae" class="D"/><g transform="translate(33.647 16.923)"><mask id="As" class="C"><use xlink:href="#G"/></mask><use xlink:href="#Af" mask="url(#As)" class="D"/></g><g class="D"><use xlink:href="#Ae" x="-8.412" y="8.462"/><use xlink:href="#Ae" y="16.923"/><use xlink:href="#Ag"/><use xlink:href="#Ae" x="-8.412" y="26.154"/><use xlink:href="#Ah"/><use xlink:href="#Ah" x="-8.412" y="8.462"/></g></g><g transform="translate(.763 26.626)"><g transform="translate(16.824)"><mask id="At" class="C"><use xlink:href="#H"/></mask><use xlink:href="#Ad" mask="url(#At)" class="D"/></g><g transform="translate(33.647 16.923)"><mask id="Au" class="C"><use xlink:href="#I"/></mask><use xlink:href="#Af" mask="url(#Au)" class="D"/></g><g transform="translate(16.824)"><mask id="Av" class="C"><use xlink:href="#J"/></mask><use xlink:href="#Ad" mask="url(#Av)" class="D"/></g><use xlink:href="#Ae" class="D"/><g transform="translate(33.647 16.923)"><mask id="Aw" class="C"><use xlink:href="#K"/></mask><use xlink:href="#Af" mask="url(#Aw)" class="D"/></g><g class="D"><use xlink:href="#Ae" x="-8.412" y="8.462"/><use xlink:href="#Ae" y="16.923"/><use xlink:href="#Ag"/><use xlink:href="#Ae" x="-8.412" y="26.154"/><use xlink:href="#Ah"/><use xlink:href="#Ah" x="-8.412" y="8.462"/></g></g></g><g transform="translate(0 54)"><path d="M403.245 425.098l-173.372 13.097c-30.577-22.492-36.577-55.42-18.002-98.782 19.924-27.022 29.034-28.574 36.877-71.785s26.608-86.2 61.515-67.022 52.69 31.972 64.926-2.858 79.908-46.608 97.787 11.693 46.748 23.865 56.686 8.9 61.304-38.924 61.304 84.13c0 82.036-18.843 123.27-56.53 123.703l-131.195-1.075z" fill="url(#L)" opacity=".3"/><g opacity=".3"><path d="M442.315 265.252l-.03.001c3.365-3.193 1.784-6.72 1.173-7.793l-.207-.336.03.006c-.975-1.746-1.536-3.716-1.536-5.807 0-3.556 1.587-6.774 4.15-9.103 2.356-2.833.574-6.6.574-6.6h.005a8.32 8.32 0 0 1-.579-3.025c0-5.028 4.487-9.103 10.023-9.103s10.02 4.076 10.02 9.103a8.32 8.32 0 0 1-.579 3.025h.005s-1.783 3.767.574 6.6c2.564 2.33 4.15 5.548 4.15 9.103 0 2.1-.56 4.058-1.535 5.803l.01-.002s-.018.025-.045.067a11.11 11.11 0 0 1-.245.421c-.63 1.182-1.842 4.336.93 7.293l.256.273c.026.026.045.05.07.075h-.008c2.396 2.713 3.84 6.154 3.84 9.905 0 8.75-7.8 15.847-17.445 15.847s-17.447-7.095-17.447-15.847c0-3.752 1.44-7.192 3.84-9.906" fill="url(#M)"/><path d="M450.14 273.78l4.333 3.82v-13.42l-5.32-4.69c-.276-.243-.278-.64-.006-.884s.718-.248.994-.005l4.333 3.82v-18.512c0-.346.314-.626.702-.626s.703.28.703.626v11.155l4.214-3.732a.76.76 0 0 1 .993.002c.274.244.274.64-.003.884l-5.204 4.6v13.48l4.657-4.192a.77.77 0 0 1 .994-.005.58.58 0 0 1 .006.886l-5.656 5.1v35.754c0 .348-.313.626-.703.626s-.702-.28-.702-.626v-28.48l-5.32-4.7a.58.58 0 0 1-.006-.886c.274-.247.718-.248.994-.005" fill="url(#N)"/></g><g opacity=".3"><path d="M374.474 304l-.026.001c3.03-2.862 1.606-6.024 1.056-6.987l-.186-.3.028.006c-.877-1.566-1.383-3.332-1.383-5.206 0-3.188 1.428-6.073 3.736-8.162 2.12-2.54.516-5.917.516-5.917h.005c-.332-.85-.52-1.76-.52-2.712 0-4.508 4.038-8.162 9.02-8.162s9.02 3.654 9.02 8.162c0 .952-.2 1.86-.52 2.712h.005s-1.604 3.377.516 5.917c2.308 2.088 3.736 4.974 3.736 8.162a10.59 10.59 0 0 1-1.382 5.203l.01-.002s-.016.022-.04.06a9.95 9.95 0 0 1-.22.378c-.567 1.06-1.658 3.888.837 6.538l.23.245c.023.023.04.045.064.068h-.007c2.156 2.433 3.455 5.518 3.455 8.88 0 7.846-7.03 14.207-15.7 14.207s-15.702-6.36-15.702-14.207c0-3.364 1.297-6.448 3.456-8.88" fill="url(#O)"/><path d="M381.41 311.253l3.94 3.4v-11.98l-4.837-4.188a.51.51 0 0 1-.005-.79c.25-.22.653-.222.904-.004l3.94 3.4V284.58c0-.31.286-.56.638-.56s.64.25.64.56v9.96l3.83-3.332a.7.7 0 0 1 .902.002c.25.218.25.57-.003.8l-4.73 4.116v12.035l4.233-3.743a.71.71 0 0 1 .904-.004.51.51 0 0 1 .005.791l-5.142 4.545v31.923c0 .3-.284.56-.64.56s-.638-.25-.638-.56v-25.428l-4.837-4.187a.51.51 0 0 1-.005-.791c.25-.22.653-.222.904-.004" fill="url(#P)"/></g><g opacity=".76" transform="translate(76.762 97.778)"><g transform="translate(0 44.662)" class="B"><mask id="Ax" class="C"><use xlink:href="#Q"/></mask><path d="M89.2 183.006H6.8c-3.756 0-6.8-2.853-6.8-6.37V6.733C-.001 3.214 3.044.36 6.8.36h82.4c3.755 0 6.8 2.853 6.8 6.373v169.9c0 3.518-3.045 6.37-6.8 6.37" fill="url(#R)" mask="url(#Ax)"/></g><path d="M90.64 45.207a6.02 6.02 0 0 1 .279 1.799V217.38c0 3.53-3.054 6.4-6.822 6.4H1.45c-.498 0-.982-.052-1.45-.148.83 2.652 3.442 4.6 6.54 4.6h82.65c3.767 0 6.82-2.86 6.82-6.4V51.45c0-3.062-2.3-5.62-5.37-6.242" fill="url(#R)" class="B"/><g fill="url(#R)"><path d="M82.416 87.146H15.34c-3.652 0-6.613-2.83-6.613-6.324V62.968c0-3.493 2.96-6.324 6.613-6.324h67.075c3.65 0 6.61 2.83 6.61 6.324v17.854c0 3.493-2.96 6.324-6.61 6.324" class="B"/><path d="M82.416 129.63H15.34c-3.652 0-6.613-2.83-6.613-6.324v-17.854c0-3.493 2.96-6.324 6.613-6.324h67.075c3.65 0 6.61 2.83 6.61 6.324v17.854c0 3.493-2.96 6.324-6.61 6.324" class="B"/><path d="M82.416 172.113H15.34c-3.652 0-6.613-2.83-6.613-6.324v-17.854c0-3.493 2.96-6.324 6.613-6.324h67.075c3.65 0 6.61 2.83 6.61 6.324V165.8c0 3.493-2.96 6.324-6.61 6.324" class="B"/><path d="M82.416 214.052H15.34c-3.652 0-6.613-2.83-6.613-6.324v-17.855c0-3.492 2.96-6.323 6.613-6.323h67.075c3.65 0 6.61 2.83 6.61 6.323v17.855c0 3.493-2.96 6.324-6.61 6.324" class="B"/></g><g fill="url(#R)"><use xlink:href="#Ai" class="B"/><use xlink:href="#Ai" y="42.483" class="B"/><path d="M82.467 141.612c.562.93.89 2.004.89 3.155v17.87c0 3.496-2.973 6.33-6.638 6.33H9.386a6.83 6.83 0 0 1-.658-.032c1.146 1.897 3.288 3.177 5.75 3.177h67.33c3.665 0 6.637-2.835 6.637-6.33v-17.87c0-3.285-2.62-5.983-5.978-6.3" class="B"/><path d="M82.467 183.55c.562.93.89 2.005.89 3.154v17.872c0 3.496-2.973 6.33-6.638 6.33H9.386a6.83 6.83 0 0 1-.658-.032c1.146 1.896 3.288 3.176 5.75 3.176h67.33c3.665 0 6.637-2.835 6.637-6.33V189.85c0-3.283-2.62-5.983-5.978-6.298" class="B"/></g><g fill="url(#R)"><use xlink:href="#Aj" class="B"/><path d="M72.773 123.094H18c-3.192 0-5.78-2.46-5.78-5.496v-9.16c0-3.036 2.588-5.496 5.78-5.496h54.774c3.192 0 5.78 2.46 5.78 5.496v9.16c0 3.035-2.588 5.496-5.78 5.496" class="B"/><use xlink:href="#Aj" y="84.977" class="B"/><use xlink:href="#Aj" y="126.37" class="B"/></g><g fill="url(#R)"><path d="M54.115 71.895c0-2.708-2.344-4.9-5.237-4.9s-5.237 2.194-5.237 4.9 2.345 4.902 5.237 4.902 5.237-2.195 5.237-4.902" class="B"/><path d="M54.115 114.38c0-2.708-2.343-4.902-5.236-4.902s-5.237 2.194-5.237 4.902 2.346 4.902 5.237 4.902 5.236-2.194 5.236-4.902" class="B"/><path d="M54.115 156.863c0-2.708-2.344-4.902-5.237-4.902s-5.237 2.194-5.237 4.902 2.345 4.902 5.237 4.902 5.237-2.194 5.237-4.902" class="B"/><path d="M54.115 198.802c0-2.708-2.345-4.902-5.237-4.902s-5.236 2.195-5.236 4.902 2.346 4.9 5.236 4.9 5.237-2.194 5.237-4.9" class="B"/></g><g fill="url(#R)"><use xlink:href="#Ak" class="B"/><path d="M50.503 109.477a5.08 5.08 0 0 1 .992 3.006c0 2.836-2.307 5.135-5.15 5.135-.758 0-1.472-.174-2.12-.467.935 1.285 2.444 2.13 4.16 2.13 2.844 0 5.15-2.3 5.15-5.135 0-2.08-1.246-3.86-3.03-4.67" class="B"/><use xlink:href="#Ak" y="84.967" class="B"/><path d="M50.503 193.9c.617.848.992 1.88.992 3.007 0 2.835-2.307 5.134-5.15 5.134-.758 0-1.472-.173-2.12-.467.935 1.286 2.444 2.13 4.16 2.13 2.844 0 5.15-2.3 5.15-5.134 0-2.08-1.246-3.862-3.03-4.67" class="B"/></g><path d="M79.008 49.564h-56.77c-2.64 0-4.782-1.95-4.782-4.357H83.8c0 2.406-2.142 4.357-4.783 4.357" fill="url(#R)" class="B"/><g transform="translate(47.714 .545)" class="B"><mask id="Ay" class="C"><use xlink:href="#S"/></mask><path d="M12.248 46.782H3.33c-1.78 0-3.22-1.35-3.22-3.015V3.014C.11 1.35 1.55-.001 3.33-.001h8.918c1.78 0 3.223 1.35 3.223 3.015v40.752c0 1.665-1.444 3.015-3.223 3.015" fill="url(#R)" mask="url(#Ay)"/></g><path fill="url(#R)" d="M51.787 47.386h9.3V0h-9.3z" class="B"/><g fill="url(#R)"><path d="M54.987 0v47.386" class="B"/><path d="M56.15 0v47.386" class="B"/><path d="M58.48 0v47.386" class="B"/></g><path d="M75.84 47.386h-9.12c-1.82 0-3.294-1.367-3.294-3.054V3.054C63.425 1.367 64.9 0 66.718 0h9.12c1.82 0 3.296 1.367 3.296 3.054v41.278c0 1.687-1.477 3.054-3.296 3.054" fill="url(#R)" class="B"/><path d="M76.907 5.99H67.98c-.588 0-1.065-.5-1.065-1.115 0-1.49 1.152-2.697 2.575-2.697h5.905c1.422 0 2.575 1.208 2.575 2.697 0 .616-.478 1.115-1.065 1.115" fill="url(#R)" class="B"/><path fill="url(#R)" d="M63.425 7.625h15.71V7.08h-15.71z" class="B"/><path fill="url(#R)" d="M63.425 13.617h15.71V9.804h-15.71z" class="B"/><path d="M75.062 29.684c0 7.37-1.693 13.344-3.783 13.344s-3.782-5.975-3.782-13.344S69.2 16.34 71.28 16.34s3.783 5.975 3.783 13.344" fill="url(#R)" class="B"/><path d="M39.612.305l8.036 3.63c1.604.724 2.266 2.51 1.48 3.986L29.884 44.083c-.786 1.477-2.723 2.088-4.327 1.363l-8.037-3.63c-1.603-.723-2.265-2.51-1.48-3.986L35.285 1.668C36.07.19 38.01-.42 39.612.305" fill="url(#R)" class="B"/><path d="M19.754 37.14l8.152 3.72c.536.245.76.85.495 1.35-.637 1.21-2.206 1.708-3.504 1.115l-5.393-2.46c-1.298-.593-1.835-2.054-1.198-3.263.263-.5.912-.706 1.448-.46" fill="url(#R)" class="B"/><path fill="url(#R)" d="M17.968 34.314l14.617 5.705-.5.83-14.618-5.705z" class="B"/><path fill="url(#R)" d="M19.718 29.956l14.03 6.546-1.68 3.258-14.032-6.546z" class="B"/><path d="M32.374 16.372C36.017 9.814 40.627 5.215 42.672 6.1s.748 6.917-2.895 13.475-8.252 11.157-10.296 10.272-.75-6.917 2.893-13.475" fill="url(#R)" class="B"/></g><g transform="translate(391.156 259.452)"><g transform="matrix(-1 0 0 1 169.065587 14.295854)"><path fill="url(#T)" d="M39.907 147.977h11.128l9.514-19.362H50.227z"/><path fill="url(#T)" d="M130.73 147.32h-11.028l-11-21.078 9.504-1.05z"/><path d="M1.477 48.033S-7.566 6.144 19.102.432s28.7 47.2 28.7 47.2-7.883 56.77 65.99 38.03c0 0 19.078-5.294 22.923 11.033s-5.126 25.29-16.343 28.17-61.203 7.042-74.343 4.162c0 0-24.354-.96-44.543-80.994" fill="url(#U)"/></g><path d="M82.51 83.908c-1.713-1.255-3.194-3.106-4.74-4.56-5.687-5.352-11.537-10.563-17.715-15.343-4.37-3.382-14.1-12.147-20.152-8.486-4.272 2.586-4.39 9.966-4.605 14.404-.266 5.508.36 11.026 1.417 16.427.995 5.073 1.86 12.835 5.41 16.91 3.212 3.686 6.654-2.073 6.654-2.073l-1.147-25.34 19.963 17.047 31.894 3.456-16.98-12.44" fill="url(#V)"/><path d="M111.54 32.39l-4.235-1.15c-.968-.354-1.932-.792-2.667-1.516-1.172-1.153-1.6-2.863-1.77-4.5-.153-1.483-.135-3 .128-4.456.256-1.42.735-2.787 1.214-4.147l2.28-6.5a17.97 17.97 0 0 0 7.322 2.29c2.364.206 5.117.097 6.64 1.925 1.092 1.312 1.1 3.305.335 4.827-.32.628-.774 1.324-.51 1.977.324.804 1.444.85 2.28.636s1.795-.534 2.506-.04c.75.517.737 1.706.208 2.448s-1.406 1.142-2.247 1.485-1.73.686-2.334 1.366c-.674.76-.874 1.78-1.064 2.806l3.07-.54s1.92 8.18 1.92 11.173-12.17 3.917-13.194 2.65l.116-10.744z" fill="url(#W)"/><path d="M.45 12.606c.26.348.636.67 1.14.936 1.467.782 4.237.793 5.944.882 2.1.108 4.202.023 6.26-.302a31.14 31.14 0 0 0 4.774-1.144c.217-.072 1.71-.433 1.773-.655 0 .002-.37 1.247 2.595.936s5.927 1.093 6.482-3.744a10.66 10.66 0 0 0 .069-1.294C29.466 3.878 27 0 27 0c-2.037.936-8.52 0-8.52 0s-1.853 1.872-3.97 4.68S6.055 6.655 1.793 8.84C.1 9.71-.494 11.345.45 12.606" fill="url(#X)" transform="matrix(.927184 -.374607 .374607 .927184 23.919961 109.132313)"/><path d="M29 120.32c.356.212.8.356 1.357.408 1.597.153 4.094-.844 5.66-1.386 1.918-.665 3.79-1.507 5.526-2.54 1.374-.818 2.677-1.737 3.89-2.74.17-.143 1.384-1.002 1.363-1.22.001.002.1 1.23 2.667-.12s5.72-1.194 4.504-5.645a9.91 9.91 0 0 0-.397-1.162c-2.044 1.684-11.57 9.466-15.006 10.998-3.3 1.466-7.285 3.274-9.563 3.4" fill="#731100"/><path d="M95.246 60.814S88.102 79.992 75.71 89.84c1.893 1.9 7.316 0 7.316 0l4.13-1.555s7.4-7.257 11.875-17.105 1.377-5.356 1.377-5.356l-5.163-5.01z" fill="url(#Y)"/><g transform="translate(91.258 38.703)"><mask id="Az" class="C"><use xlink:href="#Z"/></mask><path d="M6.168 25.394L.202 21.707l12.62-17.97s3.212-3.456 6.424-1.843C21.084 3.047 30.49 6.043 33.475.514c1.147-.69 25.01 3.456 12.39 33.634-11.014 16.818-19.275 32.022-30.06 29.95L1.81 56.494l4.36-31.1z" fill="#cee0ff" mask="url(#Az)"/></g><path d="M110.277 102.108l-17.2-8.063s-33.96-11.98-51.4 12.44c-10.784 18.43-16.52 29.027-17.438 39.394.458 3.456 7.342 5.298 24.552-19.813 8.95-12.44 20.193-22.576 32.124-16.125 12.62 6.91 15.833 8.063 21.8 6.68s12.16-14.974 12.16-14.974-1.607 1.15-4.59.46" fill="url(#a)"/><path d="M82.69 89.006c-4.775.774-12.414-7.223-16.47 2.322 1.193 2.063 2.386 1.806 5.25 1.548s11.698-.515 11.698-.515l15.278.257s5.5-.515 8.832-2.322c3.343-2.063 11.937-6.965 16.47-12.897s-.716-15.994-9.07-10.318c0 0-7.4 14.446-31.988 21.926z" fill="url(#b)"/><path d="M122.208 53.96s-6.884 12.44-8.49 13.592c0 0 7.572 9.215 7.112 14.284 1.837-.46 13.08-6.91 16.063-17.278L122.208 53.96z" fill="url(#c)"/><g transform="translate(104.37)"><mask id="BA" class="C"><use xlink:href="#d"/></mask><path d="M.116 6.438c.006-1.48.22-3.174 1.44-4C2.462 1.825 4 .398 5.064.646S6.812.564 7.903.552c2.2-.025 4.066.52 6.224.095C16.55.17 20.246 1.25 21.28 3.5c.394.85 1.554 1.2 2.215 1.864.8.806.04 1.835 1.102 2.235 1.685.633 3.026 2.127 3.476 3.877.332 1.285.205 2.654.52 3.944.273 1.122.87 2.14 1.187 3.252.575 2.014.047 4.46-1.682 5.628-1.84 1.244-4.63.886-6.014 2.63-.693.875-.843 2.093-1.56 2.944-.746.885-1.972 1.207-3.127 1.252-.613.026-1.245-.017-1.806-.265-1.443-.64-1.99-2.372-2.378-3.908-.563-.492.284-6.927.1-7.65-.348-1.295-1.867.246-2.41-.98-.37-.84-1.906 1.28-2.51.592-.503-.576-.72-2.56-1.33-3.018-1.674-1.256-2.353-.9-4.107-2.052C.637 12.34.107 9.2.116 6.438z" fill="#2b2868" mask="url(#BA)"/></g><path d="M26.735 59.396l12.22 33.865h18.07l-10.842-34.73s-.86-3.456-5.163-2.937c-4.302-.173-12.907-1.21-12.907-1.21s-2.754.864-1.377 5.01" fill="url(#e)"/><path d="M42.73 73.154c.607 2.44.18 5.075-.953 5.885s-2.542-.51-3.148-2.95-.18-5.075.953-5.885 2.54.51 3.148 2.95" fill="#e7e9eb"/><path fill="url(#e)" d="M38.954 93.26l48.187-2.246v2.764l-48.36.69z"/><path d="M.57 159.902c.327.443.806.852 1.443 1.19 1.858.995 5.367 1 7.53 1.123 2.647.137 5.322.03 7.93-.384a39.29 39.29 0 0 0 6.047-1.457c.275-.092 2.165-.55 2.246-.834 0 .003-.468 1.587 3.287 1.19s7.508 1.39 8.21-4.765a13.63 13.63 0 0 0 .088-1.647c-.028-5.528-3.14-10.463-3.14-10.463-2.58 1.19-10.792 0-10.792 0s-2.347 2.383-5.03 5.957-10.72 2.514-16.12 5.293c-2.157 1.11-2.896 3.2-1.7 4.795" fill="url(#X)"/><path d="M.655 159.92c.32.44.8.845 1.414 1.182 1.82.987 5.26 1.002 7.377 1.114 2.594.136 5.215.03 7.77-.38 2.02-.325 4.008-.8 5.925-1.446.27-.09 2.12-.547 2.2-.827 0 .003-.46 1.576 3.22 1.182s7.357 1.38 8.046-4.73a13.77 13.77 0 0 0 .087-1.635c-3.23 1.06-18.255 5.924-23.066 6.1-4.605.17-10.21.408-12.975-.56" fill="#731100"/></g><g class="J"><use filter="url(#h)" xlink:href="#g" class="E"/><use fill="url(#f)" xlink:href="#g"/><use filter="url(#k)" xlink:href="#j" class="E"/><use fill="url(#i)" xlink:href="#j"/></g><g transform="translate(292.396 337.203)"><g transform="matrix(-1 0 0 1 74.815281 43.121879)"><mask id="BB" class="C"><use xlink:href="#l"/></mask><path d="M73.317 5.174C73.317 2.316 56.904 0 36.658 0S0 2.316 0 5.174s16.412 5.175 36.658 5.175 36.658-2.316 36.658-5.175" fill="#ccdef7" opacity=".812" mask="url(#BB)"/></g><mask transform="matrix(-1 0 0 1 60.821774 .710045)" class="C"><use xlink:href="#m"/></mask></g><g transform="translate(0 224.037)"><path d="M173.594 192.838h4.465v-83.723h-4.465zm-70.674 0h4.465v-83.723h-4.465z" class="G"/><mask transform="translate(49.909 .553)" class="C"><use xlink:href="#n"/></mask><path d="M71.693 37.838l-7.39 12.816a133.97 133.97 0 0 1-9.916-8.068c2.426-3.218 4.98-6.54 8.24-8.824-.653-.636-1.252-1.333-1.847-2.025-.814-.948-1.644-1.922-2.1-3.088-.497-1.27-.51-2.68-.35-4.033.24-2.06.886-4.113 2.148-5.76 2.354-3.07 6.447-4.26 10.31-4.532 1.305-.092 5.2-1.014 6.166.188.528.662.3 2.248.445 3.067.216 1.214.58 2.402 1.017 3.554.993 2.612 2.366 5.064 3.402 7.66.537 1.343.986 2.745 1.032 4.19s-.355 2.95-1.336 4.013c-1.876 2.03-5.107 1.85-7.818 1.294a52.15 52.15 0 0 1-2.001-.453z" fill="url(#o)"/><path d="M76.892 12.666c.14-.174.217-.467.203-.915.2.075.53.738.414 1.283l.28.176c3.468 2.378 2.37 6.72 2.153 7.455a9.93 9.93 0 0 1-.005 1.429c.002 1.147-.143 2.345-.47 3.56-1.322 4.9-5.032 8.423-8.793 8.66 1.868-1.955 2.775-4.652 2.656-7.538-.775 1.064-1.712 1.87-2.75 2.33-.053 1.398-1.304 2.44-2.6 1.956-.25-.063-.493-.2-.7-.42a2.99 2.99 0 0 1-.087-.077l.007-.01c-.18-.206-.328-.462-.42-.753-.072-.224-.105-.446-.103-.656-.073-.03-.146-.063-.22-.098l.02-.043c-.94.705-1.782 1.046-1.782 1.046 1.132-.826 1.893-1.765 2.397-2.706a14.81 14.81 0 0 0 .583-4.165c0-.402-.015-.8-.045-1.19-.61 1.478-1.62 2.464-1.62 2.464.985-1.663 1.175-3.27 1-4.638-.245.015-.473.02-.685.018-.363 1.82-1.142 3.12-1.142 3.12.35-1.11.502-2.167.518-3.152a5.04 5.04 0 0 1-.165-.02c-.222.34-.506.67-.85 1-.97.906-1.407.69-1.307-.643.547-2.44-.21-3.302-2.27-2.584-1.99.694-3.69-.562-5.094-3.768-.096-.086-.218-.237-.25-.47-.63.257-1.392.18-2.258-.626 0 0 .793.345 1.733-.675a5.25 5.25 0 0 1 .919-1.486c-1.288-.022-1.546-1.542-1.546-1.542.437 1.076 1.44 1.072 2.25.85 2.44-2.058 6.834-2.87 11.387-1.823 1.28.294 2.466.72 3.544 1.232a12.35 12.35 0 0 1 2.328 1.346c.254-1.413 2.3-.966 2.3-.966-2.05 1.25-.7 2.345.447 3.05z" fill="url(#X)" transform="matrix(-1 0 0 1 133.797846 0)"/><path d="M92.745 92.742l10.282 5.725c2.72 1.513 5.746 3.082 8.795 2.46 2.126-.434 3.913-1.88 5.995-2.487 4.523-1.316 9.117 1.522 12.91 4.3-10.028-.558-20.077-.772-30.12-.644-4.602.06-9.326.17-13.653-1.39-6.705-2.42-11.36-8.4-15.632-14.11-1.477-1.97-2.968-3.963-3.942-6.223-1.633-3.785-4.11-10.865-2.915-14.904 1.14-3.842 4.098-9.897 9.445-3.266s4.09 18.573 10.437 24.814c2.422 2.38 5.43 4.064 8.398 5.716z" fill="url(#p)"/><path d="M7.706 120.736c12.1 1.16 22.24 1.75 30.427 1.77l28.99-40.396 10.192-9.194c2.44 0-4.093-27.367-22.93-30.33 0 0-38.724 16.28-46.68 78.15z" fill="url(#q)"/><path d="M34.328 121.285a222.41 222.41 0 0 1 54.648 2.904c1.95.347 3.963.75 5.577 1.9 2.856 2.035 3.738 5.84 4.13 9.325 2.358 21.02-5.383 41.667-9.534 62.41-2.715.113-5.65.112-8.36-.115-1.275-19.347 5.046-38.402 5.795-57.776.028-.7.043-1.446-.237-2.098-.544-1.267-2.006-1.837-3.344-2.17-9.627-2.4-20.15.747-29.525-2.497l.016 1.58-16.593-1.284c-1.73-.12-3.338-.927-4.894-1.69-.588-.29-1.187-.628-1.536-1.18-.374-.6-.406-1.333-.35-2.03.242-3.01 1.195-7.07 4.206-7.28" fill="url(#r)"/><path d="M7.706 119.382s-14.17 24.848 37.3 22.86c26.6-.496 31.075.25 31.075.25s2.237-1.242 4.724 4.97 23.37 40.005 38.285 51.186c4.475-3.727 6.463-7.207 6.463-7.207l-29.832-52.427s-2.734-10.685-29.336-12.92c-24.363-2.733-42.51-9.44-58.67-6.71" fill="url(#s)"/><path d="M125.73 189.54l4.99 8.563-6.593 3.83c-.2.124-.434.25-.677.246-.273-.004-.515-.17-.732-.337-1.405-1.066-2.628-2.372-3.6-3.845 1.135-2.142 2.246-4.332 4.074-5.926.76-.662 2.05-1.65 2.54-2.53" fill="#f7a175"/><path d="M129.15 195.23c1.957.6 2.855-.273 4.32-1.7l3.995-3.89c1.21-1.18 2.454-2.38 3.992-3.082 1.933-.88 4.135-.88 6.26-.868 1.492.01 3.328.242 3.87 1.63.462 1.182-.348 2.47-1.234 3.378-1.18 1.217-2.56 2.22-3.935 3.216l-17.034 12.353c-.677.5-1.374.99-2.18 1.217-.956.264-2.182-.001-2.648-.97-.38-.793-.376-1.747-.788-2.563-.227-.45-.5-.893-.553-1.392-.1-1.12 1.465-1.52 2.175-2.08.928-.74 1.67-1.68 2.403-2.603.167-.2 1.98-2.452 1.357-2.643" fill="url(#t)"/><path d="M90.51 195.643l-2.876 9.485-7.297-2.218c-.233-.07-.477-.15-.64-.33-.182-.203-.224-.492-.25-.765a15.65 15.65 0 0 1 .365-5.254c2.342-.628 4.705-1.304 7.116-1.053 1.002.104 2.606.38 3.583.134" fill="#f7a175"/><path d="M88.672 202.02c.893 1.843 2.143 1.905 4.2 2.005l5.57.274c1.69.083 3.416.174 4.976.824 1.96.815 3.46 2.426 4.897 3.99 1.008 1.1 2.088 2.6 1.44 3.943-.552 1.143-2.046 1.425-3.316 1.398-1.696-.037-3.37-.365-5.036-.693l-20.65-4.058c-.822-.16-1.663-.33-2.376-.768-.844-.52-1.484-1.598-1.092-2.6.324-.818 1.025-1.464 1.342-2.32.175-.473.306-.98.643-1.355.752-.833 2.11.04 3.006.176 1.174.177 2.367.08 3.544-.012.268-.02 3.144-.22 2.86-.807" fill="url(#t)"/><path d="M167.3 58.01l-21.38 45.222h5.966l18.893-42.49s.712-3.57-3.48-2.485" fill="url(#u)"/><path d="M96.07 103.63l.14 2.086h55.686v-2.19a1.54 1.54 0 0 0-1.538-1.538H97.606a1.54 1.54 0 0 0-1.538 1.538l.003.103z" fill="url(#e)"/><path d="M53.512 149.82H6.9A6.92 6.92 0 0 1 0 142.925a6.92 6.92 0 0 1 6.899-6.895h46.613a6.92 6.92 0 0 1 6.899 6.895 6.92 6.92 0 0 1-6.899 6.895" fill="#c7c6f7"/><g transform="translate(0 148.146)"><mask id="BC" class="C"><use xlink:href="#v"/></mask><path mask="url(#BC)" d="M6.96.308l-6.96 65.597h3.48L15.414.06z" class="G"/></g><path d="M53.2 148.95l6.96 65.597h-3.48L44.748 148.7z" class="G"/><path fill="#c7c6f7" d="M93.55 105.716h94.54v3.43H93.55"/><path d="M90.046 109.115h101.55v3.43H90.046" class="G"/><path d="M68.195 81.003c-3.332-5.235-5.463-11.123-6.39-17.664 3.168-3.75 9.332-8.742 10.548-6.82s4.774 8.532 5.454 15.5c-1.1 1.426-4.303 4.424-9.6 8.995z" fill="url(#w)"/></g><g opacity=".873" transform="translate(217.48 74.679)"><g filter="url(#x)"><g transform="translate(98.277)"><mask id="BD" class="C"><use xlink:href="#y"/></mask><path d="M32.838 40.978c-9.88 1.857-18.612-6.3-16.625-15.533 1.12-5.195 5.538-9.318 11.1-10.348 9.856-1.827 18.555 6.302 16.6 15.51-1.102 5.197-5.515 9.326-11.075 10.37m21.944-7.502h4.16c.547 0 1-.414 1-.925v-9.017c0-.51-.443-.925-1-.925h-4.16a20.54 20.54 0 0 0-.405-1.411l3.604-1.944c.473-.256.636-.82.362-1.264l-4.825-7.808c-.273-.443-.878-.594-1.352-.34l-3.61 1.947c-.357-.352-.725-.695-1.1-1.03l2.08-3.373c.273-.442.11-1.008-.362-1.263l-8.357-4.508c-.473-.256-1.08-.104-1.352.34l-2.082 3.37c-.495-.14-1-.268-1.507-.378h-.001v-3.9c0-.51-.443-.925-1-.925h-9.65c-.547 0-1 .414-1 .925v3.9c-.5.1-1.013.237-1.51.378l-2.082-3.37c-.273-.443-.88-.594-1.352-.34l-8.357 4.508c-.473.256-.636.82-.362 1.263l2.083 3.372a29.64 29.64 0 0 0-1.103 1.031l-3.61-1.947a1.03 1.03 0 0 0-1.353.339L1.775 18c-.274.443-.11 1.008.363 1.264l3.603 1.944a20.52 20.52 0 0 0-.404 1.411h-4.16c-.546 0-1 .414-1 .925v9.017c0 .51.443.925 1 .925h4.16a20.13 20.13 0 0 0 .405 1.409L2.14 36.83c-.474.256-.637.82-.363 1.264L6.6 45.903c.274.443.88.594 1.353.34l3.608-1.947a29.12 29.12 0 0 0 1.102 1.031l-2.082 3.372c-.274.443-.11 1.008.362 1.264L19.3 54.47c.473.256 1.08.104 1.352-.34l2.082-3.37c.495.14 1 .268 1.51.378v3.9c0 .51.443.925 1 .925h9.65c.547 0 1-.414 1-.925v-3.89a24.33 24.33 0 0 0 1.509-.379l2.082 3.37c.273.443.88.594 1.352.34l8.357-4.508c.473-.256.635-.82.362-1.264l-2.083-3.37a29.64 29.64 0 0 0 1.103-1.031l3.608 1.947c.474.255 1.08.104 1.352-.34l4.825-7.808c.274-.443.11-1.008-.362-1.264l-3.604-1.945a20.35 20.35 0 0 0 .406-1.41" fill="#c7e1f9" opacity=".408" mask="url(#BD)"/></g><path d="M99.336 156.016c-9.88 1.858-18.613-6.3-16.625-15.533 1.12-5.194 5.537-9.318 11.1-10.35 9.855-1.826 18.554 6.302 16.6 15.51-1.103 5.197-5.516 9.327-11.075 10.37m21.944-7.502h4.16c.546 0 1-.414 1-.925v-9.017c0-.51-.444-.925-1-.925h-4.16a20.88 20.88 0 0 0-.405-1.411l3.603-1.944c.474-.256.636-.82.362-1.264l-4.825-7.808c-.273-.443-.88-.594-1.353-.34l-3.608 1.947c-.357-.352-.725-.695-1.1-1.03l-.002-.002 2.083-3.372c.273-.442.11-1.008-.362-1.263l-8.357-4.508c-.474-.255-1.08-.104-1.353.34l-2.082 3.37c-.495-.14-.998-.268-1.507-.378h-.001v-3.9c0-.51-.443-.925-1-.925h-9.65c-.547 0-1 .414-1 .925v3.9a24.42 24.42 0 0 0-1.508.378l-2.082-3.37c-.274-.443-.88-.594-1.353-.34l-8.357 4.508c-.473.256-.635.82-.362 1.263l2.083 3.372c-.378.335-.745.678-1.104 1.03l-3.608-1.947c-.474-.256-1.08-.104-1.353.34l-4.825 7.808c-.274.443-.11 1.008.362 1.264l3.604 1.944a20.52 20.52 0 0 0-.404 1.411h-4.16c-.547 0-1 .414-1 .925v9.017c0 .51.443.925 1 .925h4.16c.118.476.255.946.406 1.41l-3.604 1.946c-.474.256-.636.82-.362 1.264l4.825 7.81c.274.442.88.594 1.353.338l3.607-1.946a30.65 30.65 0 0 0 1.103 1.031l-2.082 3.37c-.274.443-.11 1.008.362 1.264l8.357 4.508c.474.256 1.08.104 1.353-.34l2.08-3.368a24.55 24.55 0 0 0 1.509.378v3.89c0 .51.443.925 1 .925h9.65c.546 0 1-.414 1-.925v-3.89h.001c.51-.1 1.013-.237 1.508-.378l2.08 3.368c.274.443.88.594 1.353.34l8.357-4.508c.473-.256.635-.82.362-1.264l-2.083-3.37a29.66 29.66 0 0 0 1.104-1.031l3.607 1.946c.474.256 1.08.104 1.353-.338l4.825-7.81c.274-.443.11-1.008-.362-1.264l-3.604-1.944a20.56 20.56 0 0 0 .406-1.411" fill="#c7e1f9" opacity=".408"/><use filter="url(#AA)" xlink:href="#z" class="E"/><use xlink:href="#z" class="C"/><path d="M208.18 21.232L17.62 21.6c-2.78.006-5.028 2.116-5.022 4.712l.01 4.088 200.623-.387-.01-4.09c-.006-2.597-2.264-4.698-5.043-4.693" class="H"/><path d="M41.834 141.073l-22.457.043c-.905.002-1.64-.682-1.642-1.527l-.001-.456c-.002-.846.73-1.532 1.635-1.534l22.456-.044c.905-.002 1.64.682 1.642 1.528l.001.456c.003.845-.73 1.532-1.634 1.534" class="C"/><path d="M75.846 114.78h-58.4c-1.074 0-1.946-.815-1.946-1.818V99.32c0-1.004.87-1.818 1.946-1.818h58.4c1.075 0 1.946.814 1.946 1.818v13.64c0 1.004-.87 1.818-1.946 1.818" fill="#7ed321" opacity=".454"/><use filter="url(#AC)" xlink:href="#AB" class="E"/><use fill="#badbf9" xlink:href="#AB"/><use filter="url(#AE)" xlink:href="#AD" class="E"/><g class="C"><use xlink:href="#AD"/><path d="M23.1 26.184c.002.836-.722 1.516-1.618 1.518s-1.623-.675-1.625-1.51.722-1.517 1.618-1.518 1.623.675 1.624 1.512"/><path d="M29.973 26.17c.002.836-.722 1.516-1.618 1.518s-1.623-.675-1.624-1.512.722-1.516 1.618-1.518 1.623.675 1.624 1.512"/><path d="M36.837 26.158c.002.837-.722 1.517-1.618 1.518s-1.623-.676-1.625-1.512.722-1.517 1.618-1.518 1.623.675 1.624 1.51"/></g><g opacity=".888"><use filter="url(#AG)" xlink:href="#AF" class="E"/><use fill="#d3b8ff" xlink:href="#AF"/></g></g><path d="M190.984 123.592H120.13c-1.075 0-1.946-.815-1.946-1.82V87.028c0-1.006.87-1.82 1.946-1.82h70.853c1.075 0 1.946.815 1.946 1.82v34.744c0 1.005-.87 1.82-1.946 1.82" fill="#d1ebff" opacity=".525"/><path d="M197.384 127.4H126.53c-1.075 0-1.946-.815-1.946-1.82V86.937c0-1.005.87-1.82 1.946-1.82h70.853c1.075 0 1.946.815 1.946 1.82v38.643c0 1.005-.87 1.82-1.946 1.82" fill="url(#AH)"/><path d="M38.776 56.626l-17.04.033c-.76.002-1.378-.574-1.38-1.285L20.356 55c-.002-.71.613-1.29 1.374-1.29l17.04-.033c.76-.001 1.38.574 1.38 1.286v.384c.001.71-.614 1.3-1.374 1.29" class="H"/><path d="M31.466 83.072l-9.73.02c-.76.002-1.378-.574-1.38-1.286l-.001-.384c-.001-.71.613-1.29 1.374-1.29l9.73-.02c.76-.002 1.378.574 1.38 1.286v.384c.001.71-.614 1.3-1.374 1.29" fill="#24c030" opacity=".713"/><g class="H"><path d="M60.7 61.79l-38.964.075c-.76.002-1.378-.574-1.38-1.285l-.001-.384c-.001-.71.614-1.29 1.374-1.29l38.964-.076c.76-.002 1.378.574 1.38 1.286l.001.384c.001.71-.614 1.3-1.374 1.29"/><use xlink:href="#Al" class="I"/><use xlink:href="#Al" y="-2.369" class="I"/><path d="M73.054 71.652l-52.192.1c-.277.001-.502-.2-.503-.468v-.14c-.001-.26.224-.47.5-.47l52.192-.1c.277-.001.502.2.503.468v.14c.001.26-.223.47-.5.47m.001 2.368l-52.192.1c-.277.001-.502-.2-.503-.468v-.14c-.001-.26.223-.47.5-.47l52.192-.1c.277-.001.502.2.503.468l.001.14c.001.26-.224.47-.5.47M60.9 76.402l-40.035.077c-.277.001-.503-.2-.503-.468l-.001-.14c0-.26.224-.47.5-.47l40.035-.077c.277-.001.503.2.503.468v.14c.001.26-.223.47-.5.47" class="I"/></g><g fill="#dfe3e5"><path d="M122.407 137.488l-33.506.064c-.277.001-.503-.2-.503-.468v-.14c-.001-.26.223-.47.5-.47l33.506-.065c.277-.001.502.2.503.468l.001.14c.001.26-.224.47-.5.47m-.003-2.367l-33.506.064c-.277.001-.503-.208-.503-.468v-.14c-.001-.26.223-.47.5-.47l33.506-.065c.277-.001.502.2.503.468l.001.14c.001.26-.224.47-.5.47m.004 4.738l-33.506.064c-.277.001-.502-.2-.503-.468v-.14c-.001-.26.223-.47.5-.47l33.506-.065c.277-.001.503.2.503.468v.14c.001.26-.223.47-.5.47m.003 2.37l-33.506.065c-.277.001-.502-.2-.503-.468l-.001-.14c-.001-.26.223-.47.5-.47l33.506-.065c.277-.001.503.2.503.468v.14c.001.26-.224.47-.5.47m-7.882 2.373l-25.62.05c-.277.001-.502-.208-.503-.468v-.14c-.001-.26.224-.47.5-.47l25.62-.05c.277-.001.503.2.503.468v.14c.001.26-.223.47-.5.47m46.424-7.095l-33.506.064c-.278.001-.503-.2-.503-.468v-.14c-.001-.26.224-.47.5-.47l33.506-.066c.277-.001.502.2.503.47l.001.14c.001.26-.224.47-.5.47m-.003-2.37l-33.506.065c-.278.001-.503-.2-.503-.468v-.14c-.001-.26.223-.47.5-.47l33.506-.065c.277-.001.502.2.503.468l.001.14c.001.26-.224.47-.5.47"/><use xlink:href="#Am"/><path d="M160.96 142.244l-33.506.064c-.277.001-.503-.2-.503-.468v-.14c-.001-.26.224-.47.5-.47l33.506-.065c.277-.001.502.2.503.468v.14c.001.26-.224.47-.5.47m-7.884 2.373l-25.62.05c-.277.001-.5-.2-.502-.47v-.14c-.001-.26.223-.47.5-.47l25.62-.05c.277-.001.503.2.503.468v.14c.001.26-.223.47-.5.47m46.423-7.11l-33.506.064c-.278.001-.503-.2-.503-.468v-.14c-.001-.26.223-.47.5-.47l33.506-.066c.277-.001.502.2.503.47v.14c.001.26-.224.47-.5.47m-.003-2.37l-33.506.065c-.278.001-.503-.2-.503-.468v-.14c-.001-.26.223-.47.5-.47l33.506-.065c.277-.001.502.2.503.468v.14c.001.26-.224.47-.5.47"/><use xlink:href="#Am" x="38.547"/><path d="M199.506 142.244l-33.506.064c-.278.001-.503-.2-.503-.468v-.14c-.001-.26.224-.47.5-.47l33.506-.065c.277-.001.502.2.503.468v.14c.001.26-.224.47-.5.47m-7.884 2.373l-25.62.05c-.277.001-.5-.2-.502-.47v-.14c-.001-.26.223-.47.5-.47l25.62-.05c.277-.001.503.2.503.468v.14c.001.26-.224.47-.5.47"/></g><path d="M54.977 119.5H8.414c-1.598 0-2.893-1.346-2.893-3.005s1.295-3.005 2.893-3.005H55.51c1.16-1.557 3.09-2.576 5.274-2.576 3.55 0 6.426 2.69 6.426 6s-2.877 6-6.426 6c-2.563 0-4.776-1.404-5.808-3.434z" class="C"/><g stroke-width=".647"><path d="M8.035 115.64v2.593" stroke="#a8a8a8"/><path d="M62.84 116.518c0 1.114-.966 2.017-2.157 2.017s-2.156-.903-2.156-2.017.965-2.017 2.156-2.017 2.157.903 2.157 2.017zm.78 2.832l-1.466-1.195 1.466 1.195z" stroke="#3b2f7c"/></g><path d="M173.468 99.6v.005c0 1.038-.842 1.88-1.88 1.883l-78.054.16c-1.04.003-1.9-.84-1.892-1.88l-.105-51.683c-.003-1.038.84-1.885 1.88-1.888l78.055-.16c1.04-.002 1.89.84 1.89 1.88l.005 2.014.1 49.67z" fill="url(#AI)"/><path d="M112.736 116.278c0 5.88-5.088 10.648-11.365 10.648s-11.365-4.767-11.365-10.648 5.088-10.648 11.365-10.648 11.365 4.768 11.365 10.648" fill="#24c030" opacity=".713"/><g class="C"><path d="M106.267 116.278c0 2.533-2.192 4.586-4.895 4.586s-4.896-2.053-4.896-4.586 2.192-4.586 4.896-4.586 4.895 2.053 4.895 4.586"/><path d="M105.5 104.652l-4.488 11.625 14.402-3.17z"/></g><path d="M212.347 52.394c-2.83.534-5.332-1.8-4.763-4.462.32-1.492 1.587-2.677 3.18-2.973 2.823-.524 5.316 1.8 4.755 4.456-.316 1.493-1.58 2.68-3.173 2.98m6.287-2.155h1.192c.157 0 .283-.12.283-.265v-2.59c0-.147-.126-.266-.283-.266h-1.192l-.116-.405 1.033-.558c.136-.073.182-.236.104-.363l-1.383-2.243c-.078-.127-.252-.17-.388-.097l-1.034.56-.316-.296.597-.97c.078-.127.03-.29-.104-.363l-2.394-1.295c-.135-.073-.31-.03-.388.097l-.597.968-.43-.11v-1.117c0-.147-.127-.266-.284-.266h-2.765c-.157 0-.284.12-.284.266v1.117l-.432.11-.596-.968c-.078-.127-.252-.17-.388-.097l-2.394 1.295c-.135.073-.182.236-.104.363l.597.97-.316.296-1.034-.56c-.136-.073-.31-.03-.387.097l-1.383 2.243c-.078.127-.032.29.104.363l1.033.558-.116.405h-1.192c-.157 0-.284.12-.284.266v2.59c0 .147.127.265.284.265h1.192l.116.405-1.033.56c-.136.073-.182.236-.104.363l1.383 2.243c.078.127.25.17.387.097l1.034-.56.316.296-.597.97c-.078.127-.03.3.104.363l2.394 1.295c.135.073.31.03.388-.097l.596-.967.432.11v1.117c0 .147.127.266.284.266h2.765c.157 0 .284-.12.284-.266v-1.117l.432-.11.596.967c.078.127.252.17.388.097l2.394-1.295c.135-.073.182-.236.104-.363l-.597-.97.316-.296 1.034.56c.136.073.31.03.388-.097l1.383-2.243c.078-.127.032-.3-.104-.363l-1.033-.56.116-.405" fill="url(#AJ)"/></g><g class="J"><use filter="url(#AM)" xlink:href="#AL" class="E"/><use fill="url(#AK)" xlink:href="#AL"/></g><path d="M513.345 145.305v.582c0 .463-.345.85-.794.914l-.146.53c-.08.287-.34.488-.644.488h-1.443c-.304 0-.565-.2-.644-.488l-.14-.53c-.453-.07-.798-.45-.798-.92v-.582c0-.312.254-.562.57-.562h3.472a.57.57 0 0 1 .57.566zm2.305-7.49c0 1.247-.493 2.38-1.294 3.21-.61.633-1 1.44-1.132 2.302-.058.37-.377.645-.755.645h-2.862c-.374 0-.697-.27-.75-.64a4.29 4.29 0 0 0-1.14-2.309 4.61 4.61 0 0 1-1.287-3.155c-.027-2.572 2.015-4.653 4.58-4.673s4.642 2.058 4.642 4.623zm-5.38-2.563c0-.285-.185-.52-.415-.52-1.465 0-2.66 1.49-2.66 3.33 0 .285.185.52.415.52s.415-.23.415-.52c0-1.264.822-2.29 1.828-2.29.23 0 .415-.23.415-.52zm.768-3.6c.42 0 .768-.25.768-.56v-1.96c0-.307-.342-.56-.768-.56s-.768.25-.768.56v1.96c0 .31.347.56.768.56zm-6.916 6.93c0-.422-.186-.77-.42-.77h-1.468c-.23 0-.42.342-.42.77 0 .422.186.77.42.77h1.468c.233 0 .42-.342.42-.77zm14.95-.77h-1.468c-.23 0-.42.342-.42.77 0 .422.186.77.42.77h1.468c.23 0 .42-.342.42-.77 0-.422-.186-.77-.42-.77zm-13.52 4.77l-1.278 1.28c-.202.202-.202.527 0 .73.1.1.233.15.362.15s.263-.05.362-.15l1.278-1.28c.202-.202.202-.527 0-.73a.51.51 0 0 0-.725 0zm9.846-8.62c.13 0 .263-.05.362-.15l1.276-1.28c.202-.202.202-.527 0-.73a.51.51 0 0 0-.727 0l-1.276 1.28c-.202.202-.202.527 0 .73a.52.52 0 0 0 .366.149zm-9.845-.15c.1.1.232.15.362.15s.263-.05.362-.15c.202-.202.202-.527 0-.73l-1.276-1.28a.51.51 0 0 0-.727 0c-.202.202-.202.527 0 .73l1.28 1.28zm10.208 8.77c-.202-.202-.526-.202-.728 0s-.202.527 0 .73l1.278 1.28c.1.1.233.15.362.15s.263-.05.362-.15c.202-.202.202-.527 0-.73l-1.274-1.28z" fill="url(#AN)"/><path d="M230.807 417.47c.458.054.892.194 1.242.434 2.427 1.675 5.433 3.58 7.607 4.267 3.67 1.162 5.804 3.017.1 3.017s-7.445-.15-9.17-.184c-2.548-.05-1.402.184-7.762.184-3.13 0-1.66-4.886.06-7.256.522-.722.7-1.32 1.746-1.196l6.187.734z" fill="url(#AO)"/><path d="M250.128 417.477c.47.053.916.194 1.275.434 2.49 1.673 10.07 4.667 13.96 5.122 4.17.486 4.382 2.156-1.485 2.156s-10.167-.423-12.78-.37-3.613.37-10.046.37c-4.935 0-1.713-5.093.055-7.46.536-.72 1.596-1.11 2.67-.984l6.352.733z" fill="url(#AP)"/><path d="M265.673 323.126l1.826 38.8c.36 16.164-14.966 51.453-16.908 55.958l-8.673-.5c8.903-34.106 9.93-43.696 9.675-55.182-.227-10.125-5.008-29.862-7.104-38.163l-.362.015c-.317 9.125-1.242 33.068-2.346 44.828-1.225 13.085-9.46 48.615-9.5 49.012h-8.982c.03-.4 1.137-36.936 2.37-50.114 1.3-13.972-.48-47.226-.54-47.55-.32-1.712-.352-3.07-.16-4.145-.658-4.41-.864-10.247.55-16.922h40.282s.924 12.637 0 23.966l-.138.006z" fill="url(#AQ)"/><path d="M223.723 272.436c1.343 4.36 3.8 8.275 7.002 11.15.935.84 1.944 1.607 2.683 2.665 1.653 2.368 1.64 5.66 1.55 8.67-.026.857-.306 2-1.066 1.957-.273-.015-.513-.202-.736-.383-4.674-3.802-9.145-7.922-13.38-12.334-1.423-1.483-2.878-3.106-3.396-5.21 1.935-2.76 4.468-5.153 7.342-6.515" fill="url(#AR)"/><path d="M256.44 198.102c.74 1.282 1.397 2.635 1.647 4.1s.058 3.035-.79 4.25c-1.626 2.324-4.946 2.605-7.79 2.43a53.24 53.24 0 0 1-5.827-.681c-1.532-.265-3.072-.604-4.46-1.297-1.417-.708-2.625-1.76-3.816-2.8-.967-.843-1.95-1.71-2.58-2.82-.686-1.214-.9-2.638-.93-4.03-.047-2.117.32-4.286 1.372-6.132 1.964-3.444 5.97-5.233 9.87-6.062 1.317-.28 5.17-1.772 6.314-.694.632.595.625 2.232.9 3.038.393 1.196.933 2.346 1.543 3.45 1.385 2.5 3.134 4.784 4.56 7.26z" fill="url(#AS)"/><path d="M236.814 191.958c2.59-2.06 5.37-3.88 8.3-5.426 1.167-.618 2.374-1.204 3.344-2.106 1.094-1.018 1.82-2.376 2.416-3.756.734-1.7 1.3-3.53 1.194-5.385s-1.04-3.75-2.672-4.602c-1.897-.99-4.267-.373-6.03.832s-3.117 2.92-4.68 4.382c-1.928 1.802-4.195 3.227-6.646 4.175-1.96.76-4.195 1.33-5.394 3.076-1.56 2.275-.732 5.7-2.476 7.833-.398.488-.912.875-1.288 1.38-1.267 1.704-.64 4.153.284 6.08 1.277 2.663 3.03 5.092 5.144 7.134 1.057 1.02 2.305 1.988 3.758 2.1 1.446.1 2.794-.672 4.018-1.454.25-.16.52-.348.603-.638.15-.536-.4-.984-.862-1.288-1.588-1.05-3.393-2.936-3.335-5.01.082-2.932 1.68-1.66 3.26-.8.485-2.576-1.938-4.416 1.075-6.517" fill="#2e3784"/><path d="M236.248 204.024l.6 18.95s7.51 4.166 15.304-2.4l-4.08-12.604-11.816-3.947z" fill="#f6ad78"/><path d="M215.3 279.42c-5.833-7.47-8.805-17.32-8.128-26.945.283-4.026 1.174-7.977 2.14-11.887 1.356-5.5 2.892-11.014 5.7-15.862s7.058-9.014 12.285-10.49c-.756 5.77 1.283 11.476 2.396 17.18.75 3.85 1.072 8.26-.3 12.007-.877 2.392-2.738 3.952-3.832 6.192-1.64 3.36-2.05 7.724-2.216 11.438-.05 1.134 1.186 12.18 1.205 12.168l-9.25 6.2z" fill="url(#AT)"/><path fill="#faee50" d="M326.466 141.41l7.943-1.33.516 1.946-6.5 4.71-2.373.307-1.547-4.71z"/><path d="M296.045 152.3l30.253-10.814-.303 2.226 1.2.795-.15 1.43 1.36.795-30.556 11.3s-3.933-.795-1.815-5.725m38.184-12.227l3.7-.387-3.256 2.224z" fill="#2e3784"/><path d="M314.42 156.018c-.318-1.42-1.218-2.656-1.804-4-1.148-2.63-.962-5.9 1.012-8.043s5.866-2.645 8.026-.668c1.532 1.402 1.907 3.618 1.658 5.62s-1.026 3.91-1.463 5.882c-1.058 4.767-.108 9.692.242 14.55.548 7.58-.395 15.255-2.764 22.515-.485 1.487-1.228 3.15-2.797 3.613-.852.25-1.778.082-2.62-.19-6.31-2.04-8.108-8.29-5.918-13.606 2.94-7.136 5.166-14.448 6.345-22.036.188-1.206.35-2.443.082-3.637z" fill="url(#AU)"/><path d="M225.886 260.45c2.943 11.987-1.637 25.907-.782 38.207.04.598 2.628.515 3.533.908s2.03-.054 2.705 0c9.815.777 19.676.994 29.517.65.524-.018 4.975.215 5.45 0 1.505-.684.027-2.67 0-4.293-.075-4.6-.075-9.43 0-13.882.263-15.582 1.007-29.988 5.116-44.856.65-2.35 2.798-5.187 4.2-7.19 1.83-2.598 10.442-3.57 13.192-5.22 4.93-2.957 9.725-6.12 14.375-9.482 3.113-2.25 6.2-4.62 8.615-7.574 3.978-4.85 5.943-10.944 7.824-16.883.177-.562.356-1.165.177-1.724-.224-.708-.943-1.134-1.614-1.475-3.636-1.844-7.587-3.087-11.637-3.666-5.355 8.094-12.104 15.445-20.458 20.557s-18.41 7.864-28.177 6.605c-.703-.09-3.7.673-4.454 1.143-9.355 5.9-20.494-.924-30.037 2.815-8.623 3.38-5.762 18.494-3.948 25.165 1.854 6.812 4.71 13.34 6.39 20.194z" fill="url(#AV)"/><path d="M308.133 37.3l-4.47-2.267a1.25 1.25 0 0 1-.683-1.123v-1.605l.336-.452c.58-.83 1.044-1.756 1.382-2.753.66-.307 1.09-.97 1.09-1.717v-1.9a1.91 1.91 0 0 0-.468-1.246v-2.525c.026-.26.13-1.815-.98-3.098-.96-1.112-2.52-1.676-4.635-1.676s-3.674.564-4.635 1.676c-1.108 1.282-1.005 2.837-.98 3.098v2.525a1.91 1.91 0 0 0-.468 1.246v1.9a1.9 1.9 0 0 0 .7 1.476c.428 1.722 1.325 3.02 1.64 3.436v1.57c0 .46-.247.88-.644 1.1l-4.173 2.3c-1.357.752-2.2 2.192-2.2 3.76v1.537c0 2.253 7.038 2.85 10.76 2.85s10.76-.595 10.76-2.85V41.13c0-1.632-.894-3.1-2.332-3.83z" fill="url(#AW)"/><g fill="url(#AX)"><path d="M447.35 48.118v-5.293a4.23 4.23 0 0 1 4.227-4.234h4.227l1.057-.005a3.17 3.17 0 0 0-3.167-3.17h-6.346a3.17 3.17 0 0 0-3.167 3.173v6.358a3.17 3.17 0 0 0 3.167 3.173h.003z"/><path d="M457.92 39.65h-6.346a3.17 3.17 0 0 0-3.167 3.173v6.358a3.17 3.17 0 0 0 3.167 3.173h6.346a3.17 3.17 0 0 0 3.167-3.173v-6.358a3.17 3.17 0 0 0-3.167-3.173zm1.053 9.53a1.06 1.06 0 0 1-1.053 1.055h-6.346a1.06 1.06 0 0 1-1.053-1.055v-6.358a1.06 1.06 0 0 1 1.053-1.055h6.346a1.06 1.06 0 0 1 1.053 1.055v6.358z"/></g><path d="M339.62 360.827l-2.232.02c-.93-15.525-3.44-49.95-7.676-55.887-.93.008-12.028-5.68-12.464-7.448s-.425-5.123-1.332-7.427c-1.056-2.683-1.802-5.257-2.093-8.112-.173-1.7-2.678-4.15-2.02-5.796.545-1.36 4.76 2.174 6.338 3.638s4.07 4.644 6.58 5.976 5.764 7.954 6.52 10.656-.077 7.747-.077 7.747 6.657 27.66 7.548 42.926l.906 13.706" fill="url(#AY)" transform="matrix(.984808 .173648 -.173648 .984808 60.23006 -51.71336)"/><path d="M333.155 351.175l.09 12h-2.824c-.52-9.888.294-30.36 14.333-41.257 0 0-2.055-.252-1.287-3.537s5.785-7.064 5.615-8.872c-.158-1.678 1.465-3.14 2.25-4.686 1.648-3.244 4.374-2.732 6.65-5.19.606-.654 2.927-4.49 4.087-3.914s.762 5.7.67 6.3c-.287 1.835-.914 4.237-2.71 5.28-2.337 1.356-2.856 7.52-4.674 8.753s-8.57 6.287-9.997 6.41-12.333 11.095-12.203 28.724" fill="url(#AY)"/><path d="M341.9 337.518c-4.173 2-6.492 8.445-7.825 11.995-1.137 3.026-1.262 10.39-1.274 12.497h-1.317c-.03-19.338 10-25.407 10-25.407.232-7.046 6.376-7.37 9.332-7.37s5.97-1.237 7.94-1.775 2.956-.538 2.956.323-5.066 2.15-7.36 3.442c-.29.163-8.405 5.217-9.477 5.62s-2.985.672-2.985.672" fill="url(#AY)"/><path d="M301.042 322.865c2.198.626 5.56 2.066 8.857 2.066s10.15.376 10.41 8.58c0 0 11.225 7.082 11.165 29.663h-1.468c-.01-2.338-.14-11.07-1.422-14.633-1.487-4.133-4.073-11.648-8.728-13.965 0 0-2.133-.313-3.33-.783s-10.248-6.355-10.57-6.545c-2.56-1.505-8.21-3.006-8.21-4.008s1.1-1.002 3.297-.376" fill="url(#AZ)"/><path d="M337 327.554c-1.303-.162-7.037 24.34-5.25 34.457h-1.413c-.095-3.407-.26-21.278 6.043-34.87.226-.486.062-1.702.148-2.264.296-1.916.52-4.004 2.256-5.3 2.264-1.677 4.777-3.42 7.6-4.155 2.88-.75 5.945-.7 8.775-1.645 2.746-.907 6.29-4.04 6.555-2.638 0 0-4.784 8.49-6.998 9.233s-7.264 2.885-8.77 4.287-7.617 3.05-8.946 2.885" fill="url(#AZ)"/><path d="M300.23 294.568a.68.68 0 0 1 .079-.071c4.846 3.783 11.824 3.856 17.433 6.545 2.793 1.34 5.187 3.3 7.55 5.24 1.02.838 2.066 1.706 2.665 2.85.874 1.67.657 3.666.1 5.452-.138.442-.296.887-.306 1.347-.008.37.08.733.167 1.093 2.698 11.145 4.676 22.4 5.49 33.814.265 3.717.427 7.447.4 11.173h-2.237c1.14-10.55-.095-21.362-1.726-31.81-.683-4.37-1.56-8.71-2.416-13.054-.046-.235-.096-.477-.236-.677-.413-.6-1.396-.503-2.036-.64-1.075-.23-2.075-.748-3.04-1.228-3.274-1.628-6.568-3.267-9.5-5.408-4.88-3.576-8.528-8.4-12.1-13.153-.33-.44-.638-1.094-.283-1.472" fill="url(#AZ)"/><path d="M318.697 360.847h26.715s.757 20.634-7.633 25.358c-.293.165-.63.25-.972.25h-9.505c-.342 0-.678-.086-.972-.25-8.4-4.723-7.633-25.358-7.633-25.358" fill="url(#Aa)"/></g><g transform="translate(113 46)"><use filter="url(#Ac)" xlink:href="#Ab" class="E"/><use xlink:href="#Ab" class="C"/><circle fill="url(#AY)" cx="14" cy="14" r="5"/></g><circle fill="#ff8852" opacity=".19" cx="677" cy="362" r="16"/></g></svg>