<svg xmlns="http://www.w3.org/2000/svg" xmlns:xlink="http://www.w3.org/1999/xlink" viewBox="0 0 66.94 66.94"><defs><style>.cls-1{fill:url(#linear-gradient);}.cls-2{fill:#fff;}</style><linearGradient id="linear-gradient" x1="14.8" y1="7.02" x2="50.8" y2="58.02" gradientUnits="userSpaceOnUse"><stop offset="0" stop-color="#7ed500"/><stop offset="1" stop-color="#00bf8d"/></linearGradient></defs><title>User Frontend</title><g id="Layer_2" data-name="Layer 2"><g id="Layer_1-2" data-name="Layer 1"><circle class="cls-1" cx="33.47" cy="33.47" r="33.47"/><polygon class="cls-2" points="13.38 19.9 28.3 19.9 28.3 25.74 15.13 25.74 13.38 19.9"/><polygon class="cls-2" points="16.3 28.64 28.3 28.64 28.3 34.48 18.05 34.48 16.3 28.64"/><path class="cls-2" d="M44.73,41.9a11.13,11.13,0,1,1-22.27,0V36.81H28.3V41.9a5.3,5.3,0,1,0,10.6,0V36.81h5.83Z"/><path class="cls-2" d="M48.27,34.48H38.9V28.65h9.37a1.45,1.45,0,1,0,0-2.91H38.9V19.9h9.37a7.29,7.29,0,1,1,0,14.58Z"/></g></g></svg>