<svg width="45" height="45" xmlns="http://www.w3.org/2000/svg"><defs><linearGradient x1="50%" y1="2.106%" x2="50%" y2="100%" id="a"><stop stop-color="#A1DAFF" offset="0%"/><stop stop-color="#009BFF" offset="100%"/></linearGradient></defs><g fill="none" fill-rule="evenodd"><ellipse fill="url(#a)" cx="22.5" cy="22.455" rx="22.5" ry="22.455"/><path d="M31.85 21.26a.445.445 0 01.437.004.456.456 0 01.227.38v8.396c0 1.083-.866 1.96-1.935 1.96H14.934a1.922 1.922 0 01-1.368-.575A1.973 1.973 0 0113 30.038v-8.332a.456.456 0 01.225-.377.445.445 0 01.435-.007l9.1 5.071 9.09-5.133zm-10.347-7.783a1.938 1.938 0 012.572.023c1.77 1.596 5.08 4.477 6.987 6.174a.456.456 0 01-.075.73l-8.194 4.687-8.268-4.626a.456.456 0 01-.075-.73c1.936-1.702 5.203-4.65 7.053-6.258z" fill="#FFF" fill-rule="nonzero"/></g></svg>