<?xml version="1.0" encoding="UTF-8"?>
<svg width="76px" height="53px" viewBox="0 0 76 53" version="1.1" xmlns="http://www.w3.org/2000/svg" xmlns:xlink="http://www.w3.org/1999/xlink">
    <!-- Generator: Sketch 53 (72520) - https://sketchapp.com -->
    <title>Group 19</title>
    <desc>Created with Sketch.</desc>
    <defs>
        <linearGradient x1="50%" y1="0%" x2="50%" y2="100%" id="linearGradient-1">
            <stop stop-color="#FFD1EE" offset="0%"></stop>
            <stop stop-color="#FF6BAF" offset="100%"></stop>
        </linearGradient>
        <path d="M50.7749237,0 L5.22507631,0 C2.33917348,0 3.55271368e-15,2.3969786 3.55271368e-15,5.35377786 L3.55271368e-15,22.9269276 C3.55271368e-15,25.8839146 2.33953992,28.2807054 5.22507631,28.2807054 L26.9026021,28.2807054 L36.5099413,34 L34.5912584,28.2807054 L50.7749237,28.2807054 C53.6608265,28.2807054 56,25.8837268 56,22.9269276 L56,5.35377786 C56.0001832,2.39679087 53.6606433,0 50.7749237,0 Z" id="path-2"></path>
        <filter x="-33.9%" y="-32.4%" width="167.9%" height="211.8%" filterUnits="objectBoundingBox" id="filter-3">
            <feOffset dx="0" dy="8" in="SourceAlpha" result="shadowOffsetOuter1"></feOffset>
            <feGaussianBlur stdDeviation="5" in="shadowOffsetOuter1" result="shadowBlurOuter1"></feGaussianBlur>
            <feColorMatrix values="0 0 0 0 0.984313725   0 0 0 0 0.407843137   0 0 0 0 0.698039216  0 0 0 0.17 0" type="matrix" in="shadowBlurOuter1"></feColorMatrix>
        </filter>
    </defs>
    <g id="Page-1" stroke="none" stroke-width="1" fill="none" fill-rule="evenodd">
        <g id="4" transform="translate(-80.000000, -55.000000)">
            <g id="Group-19" transform="translate(90.000000, 57.000000)">
                <g id="Group-5">
                    <g id="Group-45" transform="translate(0.000000, 0.000000)">
                        <g id="Path" opacity="0.941010975">
                            <use fill="black" fill-opacity="1" filter="url(#filter-3)" xlink:href="#path-2"></use>
                            <use fill="url(#linearGradient-1)" fill-rule="evenodd" xlink:href="#path-2"></use>
                        </g>
                        <path d="M8.39047031,25.9339104 C8.38259,25.9339104 8.3750762,25.9339104 8.36737915,25.9337181 C7.73915288,25.9258356 7.15435998,25.5964985 6.80102852,25.0514485 C6.24299205,24.1905194 5.4249051,22.2056529 4.04126788,14.4340278 C3.29960168,10.2685768 2.74211501,6.34575468 2.73661711,6.3067264 C2.58047686,5.20509091 3.30528284,4.17958939 4.35538102,4.01578599 C5.40474614,3.85179034 6.38300514,4.61216877 6.5391454,5.71399652 C6.54446003,5.75225576 7.08948481,9.58529361 7.81465732,13.662883 C8.23359701,16.0182297 8.59187658,17.775271 8.88949603,19.082622 C10.7019691,15.5785368 12.9143226,10.8663054 13.8881833,8.73820705 C14.2448135,7.95917964 15.0346779,7.50506742 15.8531314,7.60946324 C16.6712183,7.71385907 17.3344479,8.35349978 17.5026835,9.19962505 C17.8210117,10.7969004 18.6456961,14.1229552 19.8172978,17.1417825 C20.2494324,12.8496338 21.0856625,7.40259417 22.6798691,3.97406612 C23.1451744,2.97317355 24.2960673,2.55751283 25.2501356,3.04584689 C26.2042038,3.53418095 26.6004189,4.74136581 26.1349303,5.74225837 C23.6000337,11.1939121 23.2204956,23.6125933 23.2168303,23.7375607 C23.1941057,24.5419661 22.7176213,25.2550492 22.0047274,25.5517025 C21.2916503,25.8485481 20.478878,25.6724402 19.9364189,25.103358 C18.2142945,23.2967142 16.6444619,20.1832962 15.2701711,15.8496198 C15.2107938,15.6621688 15.1530659,15.4766403 15.0968041,15.2934189 C13.4118822,18.8113467 11.1969631,23.2686446 9.95352221,25.0916303 C9.59212716,25.6203384 9.00989995,25.9339104 8.39047031,25.9339104 Z" id="Path" fill="#FFFFFF" fill-rule="nonzero"></path>
                        <path d="M38.229569,8.91700652 C37.4290753,7.21149021 36.0542347,6.03218269 34.258072,5.50789648 C32.2091893,4.91132144 29.9896886,5.70476816 28.3199776,7.63330318 C26.337986,9.91732231 24.8922225,14.1983201 26.7765348,19.3571657 C28.0672576,22.8927812 30.0970809,23.5416503 31.4086957,23.5416503 C31.5503581,23.5416503 31.6824909,23.5335755 31.805094,23.5216555 C35.2958915,23.1740539 38.2277363,18.3285881 38.7925535,15.0059939 C39.1984815,12.6254615 39.0089874,10.576381 38.229569,8.91700652 Z M35.0087181,14.296756 C34.8305863,15.335331 34.2120729,16.7093954 33.4289892,17.7962271 C32.624647,18.9151657 31.8356989,19.4677138 31.4431491,19.5057808 C31.2038074,19.529813 30.7595774,18.991492 30.3670276,17.9146577 C29.5780795,15.757144 29.3138139,12.4785768 31.1636727,10.3450953 C31.7151117,9.70833841 32.3567162,9.34862462 32.9081552,9.34862462 C33.0192127,9.34862462 33.1264217,9.36265942 33.2279495,9.39284385 C35.2863619,9.99364854 35.3321777,12.3903306 35.0087181,14.296756 Z" id="Shape" fill="#FFFFFF" fill-rule="nonzero"></path>
                        <path d="M52.5090715,8.91700652 C52.1069921,8.06530579 51.5630669,7.34203306 50.8967218,6.76949021 C50.2265283,6.19694737 49.4337317,5.771097 48.5355587,5.50789648 C46.4885086,4.91132144 44.2691912,5.70476816 42.5974642,7.63330318 C40.6174885,9.91732231 39.1717251,14.1983201 41.0540215,19.3571657 C42.3447443,22.8927812 44.3745676,23.5416503 45.6861823,23.5416503 C45.8278448,23.5416503 45.9619935,23.5335755 46.0844133,23.5216555 C49.5733782,23.1740539 52.5050397,18.3285881 53.0700402,15.0059939 C53.4761515,12.6254615 53.2864741,10.576381 52.5090715,8.91700652 Z M49.2862048,14.296756 C49.1100888,15.335331 48.4895596,16.7093954 47.7083086,17.7962271 C46.9021337,18.9151657 46.1131856,19.4677138 45.7206358,19.5057808 C45.4831267,19.529813 45.037064,18.991492 44.6445143,17.9146577 C43.8573988,15.757144 43.5933165,12.4785768 45.4411594,10.3450953 C45.9946143,9.70833841 46.6360355,9.34862462 47.1856419,9.34862462 C47.2966994,9.34862462 47.4039084,9.36265942 47.5072688,9.39284385 C49.5658644,9.99364854 49.6098476,12.3903306 49.2862048,14.296756 Z" id="Shape" fill="#FFFFFF" fill-rule="nonzero"></path>
                    </g>
                    <g id="Group" transform="translate(2.709677, 2.684211)"></g>
                </g>
            </g>
        </g>
    </g>
</svg>