<svg height="512" viewBox="0 0 64 64" width="512" xmlns="http://www.w3.org/2000/svg"><g id="time-social-distance-schedule-work"><path d="m3 55h58v6h-58z" fill="#c0ab91"/><path d="m3 55h58v2h-58z" fill="#a78966"/><path d="m57 41v10h-20v-10a2.006 2.006 0 0 1 2-2h16a2.006 2.006 0 0 1 2 2z" fill="#c6c5ca"/><path d="m57 51-1 4h-20l1-4z" fill="#898890"/><path d="m57 41v10h-4v-10a2.006 2.006 0 0 0 -2-2h4a2.006 2.006 0 0 1 2 2z" fill="#898890"/><path d="m57 51-1 4h-4l1-4z" fill="#57565c"/><path d="m37 51-1 4h-3a2.006 2.006 0 0 1 -2-2 2.015 2.015 0 0 1 2-2z" fill="#57565c"/><path d="m27 47v8h-18v-8a4 4 0 0 1 4-4l2 6h6l2-6a4 4 0 0 1 4 4z" fill="#57a4ff"/><path d="m23 32v3a4 4 0 0 1 -3.03 3.88 3.906 3.906 0 0 1 -.97.12h-2a3.906 3.906 0 0 1 -.97-.12 4 4 0 0 1 -3.03-3.88v-3h3l3-1 1 1z" fill="#ffdaaa"/><path d="m23 31v1h-3l-1-1-3 1h-3v-1a4 4 0 0 1 4-4h2a4 4 0 0 1 4 4z" fill="#ffde55"/><path d="m23 43-2 6h-6l-2-6h3 4z" fill="#c0ab91"/><path d="m27 47v8h-4v-8a4 4 0 0 0 -4-4h4a4 4 0 0 1 4 4z" fill="#006df0"/><path d="m23 33v2a4 4 0 0 1 -3.03 3.88 3.906 3.906 0 0 1 -.97.12h-2a3.906 3.906 0 0 0 .97-.12 4 4 0 0 0 3.03-3.88v-2z" fill="#ffc477"/><path d="m23 31v2h-2v-2a4 4 0 0 0 -4-4h2a4 4 0 0 1 4 4z" fill="#ffcd00"/><path d="m23 43-2 6h-2l2-6z" fill="#a78966"/><path d="m20 39v4h-4v-4l.03-.12a3.906 3.906 0 0 0 .97.12h2a3.906 3.906 0 0 0 .97-.12z" fill="#ffc477"/><circle cx="45" cy="19" fill="#ffde55" r="16"/><path d="m61 19a16 16 0 0 1 -29.14 9.14 16.008 16.008 0 0 0 22.28-22.28 15.98 15.98 0 0 1 6.86 13.14z" fill="#ffcd00"/><path d="m61 54h-3.72l.69-2.76a.986.986 0 0 0 .03-.24v-10a3.009 3.009 0 0 0 -3-3h-16a3.009 3.009 0 0 0 -3 3v9h-3a2.98 2.98 0 0 0 -2.82 4h-2.18v-7a5 5 0 0 0 -5-5h-2v-2.42a5.014 5.014 0 0 0 3-4.58v-4a5 5 0 0 0 -5-5h-2a5 5 0 0 0 -5 5v4a5.014 5.014 0 0 0 3 4.58v2.42h-2a5 5 0 0 0 -5 5v7h-5a1 1 0 0 0 -1 1v6a1 1 0 0 0 1 1h58a1 1 0 0 0 1-1v-6a1 1 0 0 0 -1-1zm-23-13a1 1 0 0 1 1-1h16a1 1 0 0 1 1 1v9h-18zm-.22 11h17.94l-.5 2h-17.94zm-4.78 0h2.72l-.5 2h-2.22a1 1 0 0 1 0-2zm-16-24h2a3.009 3.009 0 0 1 3 3h-1.59l-.7-.71a1.007 1.007 0 0 0 -1.03-.24l-2.84.95h-1.84a3.009 3.009 0 0 1 3-3zm-3 7v-2h2a1.185 1.185 0 0 0 .32-.05l2.41-.81.56.57a1.033 1.033 0 0 0 .71.29h2v2a3.009 3.009 0 0 1 -3 3h-2a3.009 3.009 0 0 1 -3-3zm5 5v2h-2v-2zm2.61 4-1.33 4h-4.56l-1.33-4zm-11.61 3a2.992 2.992 0 0 1 2.31-2.91l1.74 5.23a1.014 1.014 0 0 0 .95.68h6a1.014 1.014 0 0 0 .95-.68l1.74-5.23a2.992 2.992 0 0 1 2.31 2.91v7h-16zm50 13h-56v-4h56z"/><path d="m45 36a17 17 0 1 0 -17-17 17.019 17.019 0 0 0 17 17zm-8.346-29.456 1.48 2.564 1.732-1-1.474-2.554a14.871 14.871 0 0 1 5.608-1.503v2.949h2v-2.949a14.871 14.871 0 0 1 5.608 1.5l-1.474 2.557 1.732 1 1.48-2.564a15.109 15.109 0 0 1 4.11 4.11l-2.563 1.48 1 1.732 2.553-1.474a14.871 14.871 0 0 1 1.503 5.608h-2.949v2h2.949a14.871 14.871 0 0 1 -1.5 5.608l-2.553-1.474-1 1.732 2.563 1.48a15.109 15.109 0 0 1 -4.11 4.11l-1.48-2.564-1.732 1 1.474 2.554a14.871 14.871 0 0 1 -5.611 1.503v-2.949h-2v2.949a14.871 14.871 0 0 1 -5.608-1.5l1.474-2.554-1.732-1-1.48 2.564a15.109 15.109 0 0 1 -4.11-4.11l2.563-1.48-1-1.732-2.553 1.474a14.871 14.871 0 0 1 -1.503-5.611h2.949v-2h-2.949a14.871 14.871 0 0 1 1.5-5.608l2.553 1.474 1-1.732-2.563-1.48a15.109 15.109 0 0 1 4.113-4.11z"/><path d="m44.5 19.865a1 1 0 0 0 1 0l7-4-1-1.733-5.5 3.145v-8.277h-2v10a1 1 0 0 0 .5.865z"/></g></svg>